<svg width="50" height="50" viewBox="0 0 50 50" fill="none" xmlns="http://www.w3.org/2000/svg">
<path d="M24.7002 0H25.3002V50H24.7002V0Z" fill="#D9D9D9"/>
<path d="M7.11035 7.53444L7.53461 7.11018L42.89 42.4655L42.4657 42.8898L7.11035 7.53444Z" fill="#D9D9D9"/>
<path d="M12.2402 3.49934L12.7598 3.19934L37.7598 46.5006L37.2402 46.8006L12.2402 3.49934Z" fill="#D9D9D9"/>
<path d="M18.2397 0.929474L18.8193 0.774182L31.7603 49.0705L31.1807 49.2258L18.2397 0.929474Z" fill="#D9D9D9"/>
<path d="M3.19971 12.7598L3.49971 12.2402L46.801 37.2402L46.501 37.7598L3.19971 12.7598Z" fill="#D9D9D9"/>
<path d="M0.774414 18.8193L0.929705 18.2397L49.226 31.1807L49.0707 31.7602L0.774414 18.8193Z" fill="#D9D9D9"/>
<path d="M2.62271e-08 25.3L0 24.7L50 24.7V25.3L2.62271e-08 25.3Z" fill="#D9D9D9"/>
<path d="M42.4658 7.11014L42.8901 7.5344L7.53473 42.8898L7.11047 42.4655L42.4658 7.11014Z" fill="#D9D9D9"/>
<path d="M37.2405 3.19931L37.7601 3.49931L12.7601 46.8006L12.2405 46.5006L37.2405 3.19931Z" fill="#D9D9D9"/>
<path d="M31.1809 0.774155L31.7605 0.929446L18.8195 49.2258L18.2399 49.0705L31.1809 0.774155Z" fill="#D9D9D9"/>
<path d="M46.501 12.2401L46.801 12.7597L3.49969 37.7598L3.19969 37.2401L46.501 12.2401Z" fill="#D9D9D9"/>
<path d="M49.0708 18.2397L49.2261 18.8192L0.929787 31.7602L0.774495 31.1806L49.0708 18.2397Z" fill="#D9D9D9"/>
</svg>
