<svg width="721" height="581" viewBox="0 0 721 581" fill="none" xmlns="http://www.w3.org/2000/svg">
<rect x="536" y="360" width="149" height="37" rx="18.5" fill="#E9DDFF" fill-opacity="0.2"/>
<rect x="504" y="397" width="217" height="37" rx="18.5" fill="#E9DDFF" fill-opacity="0.2"/>
<rect x="558" y="434" width="131" height="37" rx="18.5" fill="#E9DDFF" fill-opacity="0.2"/>
<rect x="521" y="438" width="30" height="30" rx="15" fill="#E9DDFF" fill-opacity="0.2"/>
<rect width="149" height="37" rx="18.5" transform="matrix(-1 0 0 1 200 0)" fill="#E9DDFF" fill-opacity="0.2"/>
<rect width="217" height="37" rx="18.5" transform="matrix(-1 0 0 1 232 37)" fill="#E9DDFF" fill-opacity="0.2"/>
<rect width="131" height="37" rx="18.5" transform="matrix(-1 0 0 1 178 74)" fill="#E9DDFF" fill-opacity="0.2"/>
<rect width="30" height="30" rx="15" transform="matrix(-1 0 0 1 215 78)" fill="#E9DDFF" fill-opacity="0.2"/>
<path d="M483.824 579.5C481.991 565.5 484.124 534.8 507.324 524C508.721 532.488 508.649 547.777 502.314 561C504.318 558.5 511.624 555 524.824 561C520.991 567.167 507.724 579.5 485.324 579.5H483.824C467.824 573.5 471.324 550 471.324 548C478.524 557.6 482.658 573 483.824 579.5Z" fill="#380271"/>
<path d="M498 545.5C495 551.5 485 578.5 485 579.5C490.5 575.5 503.7 567 512.5 565M484 579.5C483.2 578.7 479 570.833 476 565" stroke="white" stroke-linecap="round"/>
<path d="M50.9178 383.808C93.3178 434.208 106.251 529.142 107.418 570.308C-0.178742 536.309 -6.74842 394.151 3.41686 327.315C3.04345 326.868 3.0932 326.925 3.41785 327.308C3.41752 327.311 3.41719 327.313 3.41686 327.315C5.15215 329.391 16.026 342.333 50.9178 383.808Z" fill="#380271"/>
<path d="M105.918 570.309C84.2513 527.475 38.118 433.109 26.918 398.309" stroke="white" stroke-width="2" stroke-linecap="round"/>
<rect x="148.418" y="50" width="455" height="286" rx="10" fill="#F0E7FF"/>
<mask id="mask0" mask-type="alpha" maskUnits="userSpaceOnUse" x="148" y="50" width="456" height="286">
<rect x="148.418" y="50" width="455" height="286" rx="10" fill="#F0E7FF"/>
</mask>
<g mask="url(#mask0)">
<rect x="148.418" y="72" width="98" height="155" fill="#E4D8F8"/>
<rect x="151.418" y="178" width="49" height="155" fill="#E4D8F8"/>
<ellipse cx="210.918" cy="253.5" rx="3.5" ry="4.5" fill="#E3D8F8"/>
<path d="M212.918 245C203.718 243.8 200.085 228.5 199.418 221H246.418C246.251 227.333 245.718 241.7 244.918 248.5C243.918 257 239.418 261 231.918 259C225.918 257.4 225.418 242.333 225.918 235C225.418 238.833 222.118 246.2 212.918 245Z" fill="#E3D8F8"/>
</g>
<rect x="268.418" y="139" width="134" height="80" rx="9" stroke="#E2D2FF" stroke-width="2" stroke-dasharray="10 10"/>
<circle cx="572.418" cy="111" r="10" fill="#FFB46F"/>
<circle cx="572.418" cy="111" r="10" fill="url(#paint0_linear)"/>
<rect x="149.918" y="51.5" width="452" height="283" rx="8.5" stroke="#380271" stroke-width="3"/>
<path d="M148.418 60C148.418 54.4772 152.895 50 158.418 50H593.418C598.941 50 603.418 54.4772 603.418 60V82H148.418V60Z" fill="#380271"/>
<circle cx="168.418" cy="66" r="6" fill="white"/>
<circle cx="187.418" cy="66" r="6" fill="white"/>
<circle cx="206.418" cy="66" r="6" fill="white"/>
<rect x="507.332" y="149" width="63.0864" height="63.0864" rx="10" fill="#E3D8F8"/>
<rect x="424.418" y="235.519" width="63.0864" height="63.0864" rx="10" fill="#E3D8F8"/>
<rect x="507.332" y="235.519" width="63.0864" height="63.0864" rx="10" fill="#FFB46F"/>
<rect x="162.418" y="171" width="69" height="4" rx="2" fill="#F0E7FF"/>
<rect x="162.418" y="193" width="69" height="4" rx="2" fill="#F0E7FF"/>
<rect x="267.418" y="239" width="69" height="4" rx="2" fill="#FFB46F"/>
<rect x="267.418" y="253" width="133" height="4" rx="2" fill="#FFB46F"/>
<rect x="267.418" y="267" width="133" height="4" rx="2" fill="#FFB46F"/>
<rect x="507.418" y="104" width="45" height="4" rx="2" fill="#E3D8F8"/>
<rect x="530.418" y="114" width="22" height="4" rx="2" fill="#E3D8F8"/>
<rect x="267.418" y="299" width="133" height="4" rx="2" fill="#FFB46F"/>
<rect x="267.418" y="313" width="133" height="4" rx="2" fill="#FFB46F"/>
<rect x="162.418" y="204" width="69" height="4" rx="2" fill="#F0E7FF"/>
<rect x="162.418" y="98" width="69" height="66" rx="10" fill="#633AEE"/>
<rect x="162.418" y="98" width="69" height="66" rx="10" fill="url(#paint1_linear)"/>
<mask id="mask1" mask-type="alpha" maskUnits="userSpaceOnUse" x="162" y="98" width="70" height="66">
<rect x="162.418" y="98" width="69" height="66" rx="10" fill="#F0E7FF"/>
</mask>
<g mask="url(#mask1)">
<ellipse cx="196.918" cy="161" rx="23.5" ry="20" fill="url(#paint2_linear)"/>
<circle cx="196.918" cy="123.5" r="12.5" fill="url(#paint3_linear)"/>
</g>
<rect x="267.418" y="101" width="214" height="19" rx="9.5" fill="#E3D8F8"/>
<path d="M267.418 110.595C267.418 105.296 271.714 101 277.013 101H293.515V120.189H277.013C271.714 120.189 267.418 115.894 267.418 110.595Z" fill="#FFB46F"/>
<path d="M267.418 110.595C267.418 105.296 271.714 101 277.013 101H293.515V120.189H277.013C271.714 120.189 267.418 115.894 267.418 110.595Z" fill="url(#paint4_linear)"/>
<circle cx="280.083" cy="109.06" r="3.22162" stroke="#F0E7FF" stroke-width="2"/>
<line x1="282.643" y1="111.874" x2="285.2" y2="114.943" stroke="#F0E7FF" stroke-width="2" stroke-linecap="round"/>
<rect x="424.418" y="149" width="63.0864" height="63.0864" rx="10" fill="url(#paint5_linear)"/>
<path d="M446.918 180.5C441.318 173.3 434.251 192.667 431.418 200.5L480.918 200.5C481.418 198.333 481.518 192.9 477.918 188.5C473.418 183 466.918 192.5 461.418 195C455.918 197.5 453.918 189.5 446.918 180.5Z" fill="white"/>
<circle cx="464.418" cy="172" r="6" fill="white"/>
<rect x="164.418" y="368" width="205" height="152" rx="10" fill="#F0E7FF"/>
<rect x="165.918" y="369.5" width="202" height="149" rx="8.5" stroke="#380271" stroke-width="3"/>
<path d="M164.418 378C164.418 372.477 168.895 368 174.418 368H359.418C364.941 368 369.418 372.477 369.418 378V385H164.418V378Z" fill="#380271"/>
<circle cx="175.047" cy="376.504" r="3.18881" fill="white"/>
<circle cx="185.145" cy="376.504" r="3.18881" fill="white"/>
<circle cx="195.243" cy="376.504" r="3.18881" fill="white"/>
<path d="M229.418 420C229.418 432.15 219.568 442 207.418 442C195.268 442 185.418 432.15 185.418 420C185.418 407.85 195.268 398 207.418 398C219.568 398 229.418 407.85 229.418 420ZM196.247 420C196.247 426.17 201.248 431.171 207.418 431.171C213.588 431.171 218.589 426.17 218.589 420C218.589 413.83 213.588 408.829 207.418 408.829C201.248 408.829 196.247 413.83 196.247 420Z" fill="#E3D8F8"/>
<path d="M229.418 420C229.418 416.02 228.338 412.114 226.293 408.699C224.249 405.284 221.316 402.487 217.807 400.608C214.299 398.728 210.346 397.835 206.37 398.025C202.394 398.215 198.544 399.479 195.23 401.684C191.917 403.889 189.263 406.952 187.553 410.546C185.842 414.14 185.139 418.131 185.518 422.093C185.897 426.056 187.343 429.841 189.704 433.046C192.064 436.251 195.25 438.756 198.921 440.293L203.103 430.304C201.239 429.524 199.622 428.252 198.423 426.624C197.225 424.997 196.49 423.075 196.298 421.063C196.105 419.051 196.462 417.025 197.331 415.2C198.199 413.375 199.547 411.819 201.229 410.7C202.912 409.58 204.867 408.938 206.886 408.842C208.905 408.745 210.912 409.199 212.693 410.153C214.475 411.108 215.964 412.527 217.002 414.262C218.041 415.996 218.589 417.979 218.589 420H229.418Z" fill="#FFB46F"/>
<path d="M229.418 420C229.418 416.02 228.338 412.114 226.293 408.699C224.249 405.284 221.316 402.487 217.807 400.608C214.299 398.728 210.346 397.835 206.37 398.025C202.394 398.215 198.544 399.479 195.23 401.684C191.917 403.889 189.263 406.952 187.553 410.546C185.842 414.14 185.139 418.131 185.518 422.093C185.897 426.056 187.343 429.841 189.704 433.046C192.064 436.251 195.25 438.756 198.921 440.293L203.103 430.304C201.239 429.524 199.622 428.252 198.423 426.624C197.225 424.997 196.49 423.075 196.298 421.063C196.105 419.051 196.462 417.025 197.331 415.2C198.199 413.375 199.547 411.819 201.229 410.7C202.912 409.58 204.867 408.938 206.886 408.842C208.905 408.745 210.912 409.199 212.693 410.153C214.475 411.108 215.964 412.527 217.002 414.262C218.041 415.996 218.589 417.979 218.589 420H229.418Z" fill="url(#paint6_linear)"/>
<path d="M229.418 479C229.418 491.15 219.568 501 207.418 501C195.268 501 185.418 491.15 185.418 479C185.418 466.85 195.268 457 207.418 457C219.568 457 229.418 466.85 229.418 479ZM196.247 479C196.247 485.17 201.248 490.171 207.418 490.171C213.588 490.171 218.589 485.17 218.589 479C218.589 472.83 213.588 467.829 207.418 467.829C201.248 467.829 196.247 472.83 196.247 479Z" fill="#E3D8F8"/>
<path d="M228.028 471.303C229.341 474.82 229.733 478.613 229.165 482.324C228.598 486.034 227.091 489.538 224.788 492.502C222.484 495.465 219.46 497.79 216.004 499.255C212.549 500.72 208.775 501.277 205.044 500.871L206.212 490.106C208.107 490.311 210.023 490.029 211.778 489.285C213.533 488.541 215.068 487.361 216.238 485.856C217.408 484.351 218.173 482.572 218.461 480.688C218.749 478.804 218.55 476.877 217.883 475.092L228.028 471.303Z" fill="url(#paint7_linear)"/>
<rect x="245.418" y="398" width="103" height="44" rx="10" fill="#E3D8F8"/>
<rect x="256.418" y="408" width="51" height="4" rx="2" fill="#F0E7FF"/>
<rect x="256.418" y="408" width="51" height="4" rx="2" fill="#F0E7FF"/>
<rect x="256.418" y="418" width="83" height="4" rx="2" fill="#F0E7FF"/>
<rect x="256.418" y="418" width="83" height="4" rx="2" fill="#F0E7FF"/>
<rect x="256.418" y="428" width="83" height="4" rx="2" fill="#F0E7FF"/>
<rect x="256.418" y="428" width="83" height="4" rx="2" fill="#F0E7FF"/>
<rect x="245.418" y="457" width="103" height="44" rx="10" fill="#E3D8F8"/>
<rect x="256.418" y="467" width="76" height="4" rx="2" fill="#F0E7FF"/>
<rect x="256.418" y="467" width="76" height="4" rx="2" fill="#F0E7FF"/>
<rect x="256.418" y="477" width="47" height="4" rx="2" fill="#F0E7FF"/>
<rect x="256.418" y="477" width="47" height="4" rx="2" fill="#F0E7FF"/>
<rect x="256.418" y="487" width="62" height="4" rx="2" fill="#F0E7FF"/>
<rect x="256.418" y="487" width="62" height="4" rx="2" fill="#F0E7FF"/>
<path d="M163.299 236.758C160.125 223.064 149.474 222.182 146.83 222.085C127.298 218.704 121.587 233.269 121.085 237.376C120.752 240.11 119.611 244.182 125.785 257.898L132.398 270.028C132.398 270.028 135.564 275.079 137.146 278.306C139.453 283.015 147.46 283.801 147.46 283.801C152.418 282 154.418 283.5 161.918 280.5C169.322 277.538 168.695 269.175 167.973 264.513C167.513 261.549 169.553 262.961 170.418 259.5C170.918 257.5 169.311 256.512 168.418 256.5C163.132 256.427 166.474 250.453 163.299 236.758Z" fill="#FBBDAA"/>
<path d="M156.418 250.5L153.918 249.5M155.918 252.5C155.518 252.5 154.085 252.833 153.418 253" stroke="#290055"/>
<ellipse rx="3" ry="4" transform="matrix(-1 0 0 1 158.101 252.515)" fill="white"/>
<mask id="mask2" mask-type="alpha" maskUnits="userSpaceOnUse" x="155" y="248" width="7" height="9">
<ellipse rx="3" ry="4" transform="matrix(-1 0 0 1 158.101 252.515)" fill="white"/>
</mask>
<g mask="url(#mask2)">
<ellipse rx="2.5" ry="3" transform="matrix(-1 0 0 1 159.601 252.515)" fill="#290055"/>
</g>
<path d="M164.418 570C166.431 557.974 168.015 533.277 168.418 530.692L150.807 511.846C148.794 529.974 144.768 566.985 144.768 570C148.794 568.277 160.392 569.282 164.418 570Z" fill="#054CB3"/>
<path d="M111.918 566C113.595 546.615 117.395 511.092 118.603 508.077L95.4562 479L91.918 562C95.1384 558.985 105.712 564.744 111.918 566Z" fill="#054CB3"/>
<path d="M160.887 565.003C157.397 563.255 149.46 562.091 145.427 562.448C141.595 567.226 139.683 575.914 145.171 576.286C150.658 576.658 168.599 580.371 176.089 575.863C180.792 573.032 178.727 565.087 173.819 565.002C171.318 564.958 165.249 567.188 160.887 565.003Z" fill="#FF785D"/>
<mask id="mask3" mask-type="alpha" maskUnits="userSpaceOnUse" x="141" y="562" width="38" height="17">
<path d="M160.887 565.003C157.397 563.255 149.46 562.091 145.427 562.448C141.595 567.226 139.683 575.914 145.171 576.286C150.658 576.658 168.599 580.371 176.089 575.863C180.792 573.032 178.727 565.087 173.819 565.002C171.318 564.958 165.249 567.188 160.887 565.003Z" fill="#FF785D"/>
</mask>
<g mask="url(#mask3)">
<path d="M140.257 572.174C145.966 573.656 155.59 575.488 164.081 575.586M178.839 572.27C175.801 574.818 170.239 575.658 164.081 575.586M164.081 575.586C162.823 571.963 161.539 564.295 166.464 562.614" stroke="white"/>
</g>
<path d="M107.693 564.356C104.341 562.356 96.5112 560.61 92.4626 560.669C88.2889 565.152 85.7426 573.675 91.1877 574.45C96.6328 575.226 114.251 580.251 122.053 576.307C126.951 573.831 125.477 565.755 120.589 565.308C118.099 565.081 111.882 566.857 107.693 564.356Z" fill="#FF785D"/>
<mask id="mask4" mask-type="alpha" maskUnits="userSpaceOnUse" x="88" y="560" width="38" height="18">
<path d="M107.693 564.356C104.341 562.356 96.5112 560.61 92.4626 560.669C88.2889 565.152 85.7426 573.675 91.1877 574.45C96.6328 575.226 114.251 580.251 122.053 576.307C126.951 573.831 125.477 565.755 120.589 565.308C118.099 565.081 111.882 566.857 107.693 564.356Z" fill="#FF785D"/>
</mask>
<g mask="url(#mask4)">
<path d="M86.5901 569.987C92.1742 571.886 101.637 574.422 110.098 575.146M125.06 572.926C121.842 575.243 116.234 575.672 110.098 575.146M110.098 575.146C109.11 571.44 108.394 563.699 113.43 562.385" stroke="white"/>
</g>
<path d="M164.101 269.113C162.934 270.113 159.601 271.113 155.601 267.113" stroke="#290055"/>
<path d="M160.6 243.015C158.791 242.218 153.627 244.859 152.1 247.015C152.515 246.778 152.916 246.555 153.301 246.346C156.381 244.671 163.808 244.428 160.6 243.015Z" fill="#290055"/>
<ellipse rx="3.29029" ry="2.05643" transform="matrix(-0.980228 0.197869 0.197869 0.980228 149.05 258.667)" fill="#EA8080"/>
<path d="M152.236 231.161C138.736 233.161 133.918 252.5 132.418 256L127.418 234.676C137.085 231.009 155.504 222.747 156.918 224.161C158.418 225.661 160.736 228.661 161.236 230.661C158.424 229.905 155.448 230.021 152.704 230.995L152.236 231.161Z" fill="white"/>
<path d="M217.913 262.515C217.413 266.015 214.413 271.015 214.413 271.515L222.413 268.515C222.746 266.849 223.313 262.815 222.913 260.015C222.413 256.515 218.413 259.015 217.913 262.515Z" fill="#FCB098"/>
<path d="M224.918 237L225.667 237.037C225.677 236.832 225.603 236.632 225.461 236.483C225.32 236.334 225.123 236.25 224.918 236.25V237ZM205.418 237H204.668C204.668 237.414 205.004 237.75 205.418 237.75V237ZM205.418 226.5V225.75C205.004 225.75 204.668 226.086 204.668 226.5H205.418ZM225.168 248.5C225.168 247.773 225.292 244.922 225.417 242.222C225.48 240.879 225.542 239.583 225.589 238.622C225.612 238.142 225.632 237.746 225.646 237.47C225.652 237.332 225.658 237.223 225.661 237.15C225.663 237.113 225.665 237.085 225.666 237.066C225.666 237.057 225.666 237.049 225.667 237.045C225.667 237.042 225.667 237.04 225.667 237.039C225.667 237.039 225.667 237.038 225.667 237.038C225.667 237.038 225.667 237.038 225.667 237.038C225.667 237.037 225.667 237.037 224.918 237C224.169 236.963 224.169 236.963 224.169 236.963C224.169 236.963 224.169 236.963 224.169 236.963C224.169 236.963 224.169 236.964 224.169 236.964C224.169 236.966 224.169 236.967 224.169 236.97C224.168 236.975 224.168 236.982 224.167 236.991C224.167 237.01 224.165 237.039 224.163 237.075C224.16 237.149 224.154 237.257 224.147 237.396C224.134 237.672 224.114 238.069 224.091 238.549C224.044 239.511 223.981 240.808 223.919 242.153C223.794 244.828 223.668 247.727 223.668 248.5H225.168ZM224.918 236.25H205.418V237.75H224.918V236.25ZM205.418 237C206.168 237 206.168 237 206.168 237C206.168 237 206.168 237 206.168 237C206.168 236.999 206.168 236.999 206.168 236.999C206.168 236.999 206.168 236.999 206.168 236.998C206.168 236.998 206.168 236.998 206.168 236.997C206.168 236.997 206.168 236.997 206.168 236.996C206.168 236.996 206.168 236.995 206.168 236.995C206.168 236.994 206.168 236.994 206.168 236.993C206.168 236.993 206.168 236.992 206.168 236.992C206.168 236.991 206.168 236.99 206.168 236.99C206.168 236.989 206.168 236.988 206.168 236.987C206.168 236.987 206.168 236.986 206.168 236.985C206.168 236.984 206.168 236.983 206.168 236.983C206.168 236.982 206.168 236.981 206.168 236.98C206.168 236.979 206.168 236.978 206.168 236.977C206.168 236.976 206.168 236.975 206.168 236.974C206.168 236.973 206.168 236.971 206.168 236.97C206.168 236.969 206.168 236.968 206.168 236.967C206.168 236.966 206.168 236.964 206.168 236.963C206.168 236.962 206.168 236.96 206.168 236.959C206.168 236.958 206.168 236.956 206.168 236.955C206.168 236.953 206.168 236.952 206.168 236.951C206.168 236.949 206.168 236.948 206.168 236.946C206.168 236.945 206.168 236.943 206.168 236.941C206.168 236.94 206.168 236.938 206.168 236.936C206.168 236.935 206.168 236.933 206.168 236.931C206.168 236.93 206.168 236.928 206.168 236.926C206.168 236.924 206.168 236.922 206.168 236.921C206.168 236.919 206.168 236.917 206.168 236.915C206.168 236.913 206.168 236.911 206.168 236.909C206.168 236.907 206.168 236.905 206.168 236.903C206.168 236.901 206.168 236.899 206.168 236.897C206.168 236.895 206.168 236.892 206.168 236.89C206.168 236.888 206.168 236.886 206.168 236.884C206.168 236.881 206.168 236.879 206.168 236.877C206.168 236.875 206.168 236.872 206.168 236.87C206.168 236.868 206.168 236.865 206.168 236.863C206.168 236.86 206.168 236.858 206.168 236.855C206.168 236.853 206.168 236.85 206.168 236.848C206.168 236.845 206.168 236.843 206.168 236.84C206.168 236.838 206.168 236.835 206.168 236.832C206.168 236.83 206.168 236.827 206.168 236.824C206.168 236.822 206.168 236.819 206.168 236.816C206.168 236.813 206.168 236.811 206.168 236.808C206.168 236.805 206.168 236.802 206.168 236.799C206.168 236.796 206.168 236.793 206.168 236.79C206.168 236.787 206.168 236.784 206.168 236.781C206.168 236.778 206.168 236.775 206.168 236.772C206.168 236.769 206.168 236.766 206.168 236.763C206.168 236.76 206.168 236.757 206.168 236.754C206.168 236.75 206.168 236.747 206.168 236.744C206.168 236.741 206.168 236.737 206.168 236.734C206.168 236.731 206.168 236.728 206.168 236.724C206.168 236.721 206.168 236.717 206.168 236.714C206.168 236.711 206.168 236.707 206.168 236.704C206.168 236.7 206.168 236.697 206.168 236.693C206.168 236.69 206.168 236.686 206.168 236.683C206.168 236.679 206.168 236.675 206.168 236.672C206.168 236.668 206.168 236.665 206.168 236.661C206.168 236.657 206.168 236.653 206.168 236.65C206.168 236.646 206.168 236.642 206.168 236.638C206.168 236.635 206.168 236.631 206.168 236.627C206.168 236.623 206.168 236.619 206.168 236.615C206.168 236.611 206.168 236.607 206.168 236.604C206.168 236.6 206.168 236.596 206.168 236.592C206.168 236.588 206.168 236.584 206.168 236.579C206.168 236.575 206.168 236.571 206.168 236.567C206.168 236.563 206.168 236.559 206.168 236.555C206.168 236.551 206.168 236.546 206.168 236.542C206.168 236.538 206.168 236.534 206.168 236.529C206.168 236.525 206.168 236.521 206.168 236.517C206.168 236.512 206.168 236.508 206.168 236.503C206.168 236.499 206.168 236.495 206.168 236.49C206.168 236.486 206.168 236.481 206.168 236.477C206.168 236.472 206.168 236.468 206.168 236.463C206.168 236.459 206.168 236.454 206.168 236.45C206.168 236.445 206.168 236.44 206.168 236.436C206.168 236.431 206.168 236.427 206.168 236.422C206.168 236.417 206.168 236.412 206.168 236.408C206.168 236.403 206.168 236.398 206.168 236.393C206.168 236.389 206.168 236.384 206.168 236.379C206.168 236.374 206.168 236.369 206.168 236.364C206.168 236.36 206.168 236.355 206.168 236.35C206.168 236.345 206.168 236.34 206.168 236.335C206.168 236.33 206.168 236.325 206.168 236.32C206.168 236.315 206.168 236.31 206.168 236.305C206.168 236.3 206.168 236.295 206.168 236.289C206.168 236.284 206.168 236.279 206.168 236.274C206.168 236.269 206.168 236.264 206.168 236.258C206.168 236.253 206.168 236.248 206.168 236.243C206.168 236.237 206.168 236.232 206.168 236.227C206.168 236.221 206.168 236.216 206.168 236.211C206.168 236.205 206.168 236.2 206.168 236.195C206.168 236.189 206.168 236.184 206.168 236.178C206.168 236.173 206.168 236.167 206.168 236.162C206.168 236.156 206.168 236.151 206.168 236.145C206.168 236.14 206.168 236.134 206.168 236.129C206.168 236.123 206.168 236.117 206.168 236.112C206.168 236.106 206.168 236.1 206.168 236.095C206.168 236.089 206.168 236.083 206.168 236.078C206.168 236.072 206.168 236.066 206.168 236.06C206.168 236.055 206.168 236.049 206.168 236.043C206.168 236.037 206.168 236.031 206.168 236.025C206.168 236.02 206.168 236.014 206.168 236.008C206.168 236.002 206.168 235.996 206.168 235.99C206.168 235.984 206.168 235.978 206.168 235.972C206.168 235.966 206.168 235.96 206.168 235.954C206.168 235.948 206.168 235.942 206.168 235.936C206.168 235.93 206.168 235.924 206.168 235.918C206.168 235.912 206.168 235.905 206.168 235.899C206.168 235.893 206.168 235.887 206.168 235.881C206.168 235.874 206.168 235.868 206.168 235.862C206.168 235.856 206.168 235.85 206.168 235.843C206.168 235.837 206.168 235.831 206.168 235.824C206.168 235.818 206.168 235.812 206.168 235.805C206.168 235.799 206.168 235.793 206.168 235.786C206.168 235.78 206.168 235.773 206.168 235.767C206.168 235.76 206.168 235.754 206.168 235.747C206.168 235.741 206.168 235.734 206.168 235.728C206.168 235.721 206.168 235.715 206.168 235.708C206.168 235.702 206.168 235.695 206.168 235.688C206.168 235.682 206.168 235.675 206.168 235.669C206.168 235.662 206.168 235.655 206.168 235.649C206.168 235.642 206.168 235.635 206.168 235.628C206.168 235.622 206.168 235.615 206.168 235.608C206.168 235.601 206.168 235.595 206.168 235.588C206.168 235.581 206.168 235.574 206.168 235.567C206.168 235.561 206.168 235.554 206.168 235.547C206.168 235.54 206.168 235.533 206.168 235.526C206.168 235.519 206.168 235.512 206.168 235.505C206.168 235.498 206.168 235.491 206.168 235.484C206.168 235.477 206.168 235.47 206.168 235.463C206.168 235.456 206.168 235.449 206.168 235.442C206.168 235.435 206.168 235.428 206.168 235.421C206.168 235.414 206.168 235.407 206.168 235.4C206.168 235.393 206.168 235.385 206.168 235.378C206.168 235.371 206.168 235.364 206.168 235.357C206.168 235.35 206.168 235.342 206.168 235.335C206.168 235.328 206.168 235.321 206.168 235.313C206.168 235.306 206.168 235.299 206.168 235.291C206.168 235.284 206.168 235.277 206.168 235.269C206.168 235.262 206.168 235.255 206.168 235.247C206.168 235.24 206.168 235.233 206.168 235.225C206.168 235.218 206.168 235.21 206.168 235.203C206.168 235.195 206.168 235.188 206.168 235.181C206.168 235.173 206.168 235.166 206.168 235.158C206.168 235.151 206.168 235.143 206.168 235.135C206.168 235.128 206.168 235.12 206.168 235.113C206.168 235.105 206.168 235.098 206.168 235.09C206.168 235.082 206.168 235.075 206.168 235.067C206.168 235.059 206.168 235.052 206.168 235.044C206.168 235.036 206.168 235.029 206.168 235.021C206.168 235.013 206.168 235.006 206.168 234.998C206.168 234.99 206.168 234.982 206.168 234.975C206.168 234.967 206.168 234.959 206.168 234.951C206.168 234.944 206.168 234.936 206.168 234.928C206.168 234.92 206.168 234.912 206.168 234.904C206.168 234.897 206.168 234.889 206.168 234.881C206.168 234.873 206.168 234.865 206.168 234.857C206.168 234.849 206.168 234.841 206.168 234.833C206.168 234.825 206.168 234.817 206.168 234.809C206.168 234.801 206.168 234.793 206.168 234.785C206.168 234.777 206.168 234.769 206.168 234.761C206.168 234.753 206.168 234.745 206.168 234.737C206.168 234.729 206.168 234.721 206.168 234.713C206.168 234.705 206.168 234.697 206.168 234.689C206.168 234.681 206.168 234.672 206.168 234.664C206.168 234.656 206.168 234.648 206.168 234.64C206.168 234.632 206.168 234.623 206.168 234.615C206.168 234.607 206.168 234.599 206.168 234.591C206.168 234.582 206.168 234.574 206.168 234.566C206.168 234.558 206.168 234.549 206.168 234.541C206.168 234.533 206.168 234.524 206.168 234.516C206.168 234.508 206.168 234.5 206.168 234.491C206.168 234.483 206.168 234.474 206.168 234.466C206.168 234.458 206.168 234.449 206.168 234.441C206.168 234.433 206.168 234.424 206.168 234.416C206.168 234.407 206.168 234.399 206.168 234.391C206.168 234.382 206.168 234.374 206.168 234.365C206.168 234.357 206.168 234.348 206.168 234.34C206.168 234.331 206.168 234.323 206.168 234.314C206.168 234.306 206.168 234.297 206.168 234.289C206.168 234.28 206.168 234.272 206.168 234.263C206.168 234.255 206.168 234.246 206.168 234.237C206.168 234.229 206.168 234.22 206.168 234.212C206.168 234.203 206.168 234.194 206.168 234.186C206.168 234.177 206.168 234.169 206.168 234.16C206.168 234.151 206.168 234.143 206.168 234.134C206.168 234.125 206.168 234.117 206.168 234.108C206.168 234.099 206.168 234.09 206.168 234.082C206.168 234.073 206.168 234.064 206.168 234.056C206.168 234.047 206.168 234.038 206.168 234.029C206.168 234.021 206.168 234.012 206.168 234.003C206.168 233.994 206.168 233.985 206.168 233.977C206.168 233.968 206.168 233.959 206.168 233.95C206.168 233.941 206.168 233.933 206.168 233.924C206.168 233.915 206.168 233.906 206.168 233.897C206.168 233.888 206.168 233.879 206.168 233.871C206.168 233.862 206.168 233.853 206.168 233.844C206.168 233.835 206.168 233.826 206.168 233.817C206.168 233.808 206.168 233.799 206.168 233.79C206.168 233.781 206.168 233.772 206.168 233.763C206.168 233.755 206.168 233.746 206.168 233.737C206.168 233.728 206.168 233.719 206.168 233.71C206.168 233.701 206.168 233.692 206.168 233.683C206.168 233.674 206.168 233.665 206.168 233.656C206.168 233.646 206.168 233.637 206.168 233.628C206.168 233.619 206.168 233.61 206.168 233.601C206.168 233.592 206.168 233.583 206.168 233.574C206.168 233.565 206.168 233.556 206.168 233.547C206.168 233.538 206.168 233.529 206.168 233.519C206.168 233.51 206.168 233.501 206.168 233.492C206.168 233.483 206.168 233.474 206.168 233.465C206.168 233.455 206.168 233.446 206.168 233.437C206.168 233.428 206.168 233.419 206.168 233.41C206.168 233.4 206.168 233.391 206.168 233.382C206.168 233.373 206.168 233.364 206.168 233.354C206.168 233.345 206.168 233.336 206.168 233.327C206.168 233.318 206.168 233.308 206.168 233.299C206.168 233.29 206.168 233.281 206.168 233.271C206.168 233.262 206.168 233.253 206.168 233.244C206.168 233.234 206.168 233.225 206.168 233.216C206.168 233.206 206.168 233.197 206.168 233.188C206.168 233.179 206.168 233.169 206.168 233.16C206.168 233.151 206.168 233.141 206.168 233.132C206.168 233.123 206.168 233.113 206.168 233.104C206.168 233.095 206.168 233.085 206.168 233.076C206.168 233.067 206.168 233.057 206.168 233.048C206.168 233.039 206.168 233.029 206.168 233.02C206.168 233.01 206.168 233.001 206.168 232.992C206.168 232.982 206.168 232.973 206.168 232.963C206.168 232.954 206.168 232.945 206.168 232.935C206.168 232.926 206.168 232.916 206.168 232.907C206.168 232.898 206.168 232.888 206.168 232.879C206.168 232.869 206.168 232.86 206.168 232.85C206.168 232.841 206.168 232.832 206.168 232.822C206.168 232.813 206.168 232.803 206.168 232.794C206.168 232.784 206.168 232.775 206.168 232.765C206.168 232.756 206.168 232.746 206.168 232.737C206.168 232.727 206.168 232.718 206.168 232.708C206.168 232.699 206.168 232.689 206.168 232.68C206.168 232.67 206.168 232.661 206.168 232.651C206.168 232.642 206.168 232.632 206.168 232.623C206.168 232.613 206.168 232.604 206.168 232.594C206.168 232.585 206.168 232.575 206.168 232.566C206.168 232.556 206.168 232.547 206.168 232.537C206.168 232.528 206.168 232.518 206.168 232.509C206.168 232.499 206.168 232.489 206.168 232.48C206.168 232.47 206.168 232.461 206.168 232.451C206.168 232.442 206.168 232.432 206.168 232.423C206.168 232.413 206.168 232.403 206.168 232.394C206.168 232.384 206.168 232.375 206.168 232.365C206.168 232.356 206.168 232.346 206.168 232.336C206.168 232.327 206.168 232.317 206.168 232.308C206.168 232.298 206.168 232.288 206.168 232.279C206.168 232.269 206.168 232.26 206.168 232.25C206.168 232.24 206.168 232.231 206.168 232.221C206.168 232.212 206.168 232.202 206.168 232.192C206.168 232.183 206.168 232.173 206.168 232.164C206.168 232.154 206.168 232.144 206.168 232.135C206.168 232.125 206.168 232.115 206.168 232.106C206.168 232.096 206.168 232.087 206.168 232.077C206.168 232.067 206.168 232.058 206.168 232.048C206.168 232.038 206.168 232.029 206.168 232.019C206.168 232.009 206.168 232 206.168 231.99C206.168 231.981 206.168 231.971 206.168 231.961C206.168 231.952 206.168 231.942 206.168 231.932C206.168 231.923 206.168 231.913 206.168 231.903C206.168 231.894 206.168 231.884 206.168 231.874C206.168 231.865 206.168 231.855 206.168 231.846C206.168 231.836 206.168 231.826 206.168 231.817C206.168 231.807 206.168 231.797 206.168 231.788C206.168 231.778 206.168 231.768 206.168 231.759C206.168 231.749 206.168 231.739 206.168 231.73C206.168 231.72 206.168 231.71 206.168 231.701C206.168 231.691 206.168 231.681 206.168 231.672C206.168 231.662 206.168 231.652 206.168 231.643C206.168 231.633 206.168 231.624 206.168 231.614C206.168 231.604 206.168 231.595 206.168 231.585C206.168 231.575 206.168 231.566 206.168 231.556C206.168 231.546 206.168 231.537 206.168 231.527C206.168 231.517 206.168 231.508 206.168 231.498C206.168 231.488 206.168 231.479 206.168 231.469C206.168 231.459 206.168 231.45 206.168 231.44C206.168 231.431 206.168 231.421 206.168 231.411C206.168 231.402 206.168 231.392 206.168 231.382C206.168 231.373 206.168 231.363 206.168 231.353C206.168 231.344 206.168 231.334 206.168 231.324C206.168 231.315 206.168 231.305 206.168 231.296C206.168 231.286 206.168 231.276 206.168 231.267C206.168 231.257 206.168 231.247 206.168 231.238C206.168 231.228 206.168 231.219 206.168 231.209C206.168 231.199 206.168 231.19 206.168 231.18C206.168 231.17 206.168 231.161 206.168 231.151C206.168 231.142 206.168 231.132 206.168 231.122C206.168 231.113 206.168 231.103 206.168 231.094C206.168 231.084 206.168 231.074 206.168 231.065C206.168 231.055 206.168 231.046 206.168 231.036C206.168 231.026 206.168 231.017 206.168 231.007C206.168 230.998 206.168 230.988 206.168 230.978C206.168 230.969 206.168 230.959 206.168 230.95C206.168 230.94 206.168 230.931 206.168 230.921C206.168 230.911 206.168 230.902 206.168 230.892C206.168 230.883 206.168 230.873 206.168 230.864C206.168 230.854 206.168 230.845 206.168 230.835C206.168 230.825 206.168 230.816 206.168 230.806C206.168 230.797 206.168 230.787 206.168 230.778C206.168 230.768 206.168 230.759 206.168 230.749C206.168 230.74 206.168 230.73 206.168 230.721C206.168 230.711 206.168 230.702 206.168 230.692C206.168 230.683 206.168 230.673 206.168 230.664C206.168 230.654 206.168 230.645 206.168 230.635C206.168 230.626 206.168 230.616 206.168 230.607C206.168 230.597 206.168 230.588 206.168 230.578C206.168 230.569 206.168 230.559 206.168 230.55C206.168 230.54 206.168 230.531 206.168 230.521C206.168 230.512 206.168 230.502 206.168 230.493C206.168 230.484 206.168 230.474 206.168 230.465C206.168 230.455 206.168 230.446 206.168 230.436C206.168 230.427 206.168 230.418 206.168 230.408C206.168 230.399 206.168 230.389 206.168 230.38C206.168 230.371 206.168 230.361 206.168 230.352C206.168 230.342 206.168 230.333 206.168 230.324C206.168 230.314 206.168 230.305 206.168 230.296C206.168 230.286 206.168 230.277 206.168 230.267C206.168 230.258 206.168 230.249 206.168 230.239C206.168 230.23 206.168 230.221 206.168 230.211C206.168 230.202 206.168 230.193 206.168 230.184C206.168 230.174 206.168 230.165 206.168 230.156C206.168 230.146 206.168 230.137 206.168 230.128C206.168 230.118 206.168 230.109 206.168 230.1C206.168 230.091 206.168 230.081 206.168 230.072C206.168 230.063 206.168 230.054 206.168 230.044C206.168 230.035 206.168 230.026 206.168 230.017C206.168 230.007 206.168 229.998 206.168 229.989C206.168 229.98 206.168 229.971 206.168 229.961C206.168 229.952 206.168 229.943 206.168 229.934C206.168 229.925 206.168 229.915 206.168 229.906C206.168 229.897 206.168 229.888 206.168 229.879C206.168 229.87 206.168 229.86 206.168 229.851C206.168 229.842 206.168 229.833 206.168 229.824C206.168 229.815 206.168 229.806 206.168 229.797C206.168 229.787 206.168 229.778 206.168 229.769C206.168 229.76 206.168 229.751 206.168 229.742C206.168 229.733 206.168 229.724 206.168 229.715C206.168 229.706 206.168 229.697 206.168 229.688C206.168 229.679 206.168 229.67 206.168 229.661C206.168 229.652 206.168 229.643 206.168 229.634C206.168 229.625 206.168 229.616 206.168 229.607C206.168 229.598 206.168 229.589 206.168 229.58C206.168 229.571 206.168 229.562 206.168 229.553C206.168 229.544 206.168 229.535 206.168 229.526C206.168 229.517 206.168 229.508 206.168 229.499C206.168 229.49 206.168 229.482 206.168 229.473C206.168 229.464 206.168 229.455 206.168 229.446C206.168 229.437 206.168 229.428 206.168 229.42C206.168 229.411 206.168 229.402 206.168 229.393C206.168 229.384 206.168 229.375 206.168 229.367C206.168 229.358 206.168 229.349 206.168 229.34C206.168 229.331 206.168 229.323 206.168 229.314C206.168 229.305 206.168 229.296 206.168 229.288C206.168 229.279 206.168 229.27 206.168 229.261C206.168 229.253 206.168 229.244 206.168 229.235C206.168 229.227 206.168 229.218 206.168 229.209C206.168 229.201 206.168 229.192 206.168 229.183C206.168 229.175 206.168 229.166 206.168 229.157C206.168 229.149 206.168 229.14 206.168 229.131C206.168 229.123 206.168 229.114 206.168 229.106C206.168 229.097 206.168 229.089 206.168 229.08C206.168 229.071 206.168 229.063 206.168 229.054C206.168 229.046 206.168 229.037 206.168 229.029C206.168 229.02 206.168 229.012 206.168 229.003C206.168 228.995 206.168 228.986 206.168 228.978C206.168 228.969 206.168 228.961 206.168 228.952C206.168 228.944 206.168 228.936 206.168 228.927C206.168 228.919 206.168 228.91 206.168 228.902C206.168 228.894 206.168 228.885 206.168 228.877C206.168 228.868 206.168 228.86 206.168 228.852C206.168 228.843 206.168 228.835 206.168 228.827C206.168 228.819 206.168 228.81 206.168 228.802C206.168 228.794 206.168 228.785 206.168 228.777C206.168 228.769 206.168 228.761 206.168 228.752C206.168 228.744 206.168 228.736 206.168 228.728C206.168 228.719 206.168 228.711 206.168 228.703C206.168 228.695 206.168 228.687 206.168 228.679C206.168 228.67 206.168 228.662 206.168 228.654C206.168 228.646 206.168 228.638 206.168 228.63C206.168 228.622 206.168 228.614 206.168 228.606C206.168 228.598 206.168 228.59 206.168 228.581C206.168 228.573 206.168 228.565 206.168 228.557C206.168 228.549 206.168 228.541 206.168 228.533C206.168 228.525 206.168 228.517 206.168 228.51C206.168 228.502 206.168 228.494 206.168 228.486C206.168 228.478 206.168 228.47 206.168 228.462C206.168 228.454 206.168 228.446 206.168 228.438C206.168 228.43 206.168 228.423 206.168 228.415C206.168 228.407 206.168 228.399 206.168 228.391C206.168 228.384 206.168 228.376 206.168 228.368C206.168 228.36 206.168 228.352 206.168 228.345C206.168 228.337 206.168 228.329 206.168 228.322C206.168 228.314 206.168 228.306 206.168 228.298C206.168 228.291 206.168 228.283 206.168 228.275C206.168 228.268 206.168 228.26 206.168 228.253C206.168 228.245 206.168 228.237 206.168 228.23C206.168 228.222 206.168 228.215 206.168 228.207C206.168 228.2 206.168 228.192 206.168 228.185C206.168 228.177 206.168 228.17 206.168 228.162C206.168 228.155 206.168 228.147 206.168 228.14C206.168 228.132 206.168 228.125 206.168 228.117C206.168 228.11 206.168 228.103 206.168 228.095C206.168 228.088 206.168 228.08 206.168 228.073C206.168 228.066 206.168 228.058 206.168 228.051C206.168 228.044 206.168 228.036 206.168 228.029C206.168 228.022 206.168 228.015 206.168 228.007C206.168 228 206.168 227.993 206.168 227.986C206.168 227.978 206.168 227.971 206.168 227.964C206.168 227.957 206.168 227.95 206.168 227.943C206.168 227.936 206.168 227.928 206.168 227.921C206.168 227.914 206.168 227.907 206.168 227.9C206.168 227.893 206.168 227.886 206.168 227.879C206.168 227.872 206.168 227.865 206.168 227.858C206.168 227.851 206.168 227.844 206.168 227.837C206.168 227.83 206.168 227.823 206.168 227.816C206.168 227.809 206.168 227.802 206.168 227.795C206.168 227.789 206.168 227.782 206.168 227.775C206.168 227.768 206.168 227.761 206.168 227.754C206.168 227.748 206.168 227.741 206.168 227.734C206.168 227.727 206.168 227.72 206.168 227.714C206.168 227.707 206.168 227.7 206.168 227.694C206.168 227.687 206.168 227.68 206.168 227.674C206.168 227.667 206.168 227.66 206.168 227.654C206.168 227.647 206.168 227.64 206.168 227.634C206.168 227.627 206.168 227.621 206.168 227.614C206.168 227.608 206.168 227.601 206.168 227.595C206.168 227.588 206.168 227.582 206.168 227.575C206.168 227.569 206.168 227.562 206.168 227.556C206.168 227.55 206.168 227.543 206.168 227.537C206.168 227.53 206.168 227.524 206.168 227.518C206.168 227.511 206.168 227.505 206.168 227.499C206.168 227.492 206.168 227.486 206.168 227.48C206.168 227.474 206.168 227.467 206.168 227.461C206.168 227.455 206.168 227.449 206.168 227.443C206.168 227.437 206.168 227.43 206.168 227.424C206.168 227.418 206.168 227.412 206.168 227.406C206.168 227.4 206.168 227.394 206.168 227.388C206.168 227.382 206.168 227.376 206.168 227.37C206.168 227.364 206.168 227.358 206.168 227.352C206.168 227.346 206.168 227.34 206.168 227.334C206.168 227.328 206.168 227.322 206.168 227.316C206.168 227.31 206.168 227.305 206.168 227.299C206.168 227.293 206.168 227.287 206.168 227.281C206.168 227.276 206.168 227.27 206.168 227.264C206.168 227.258 206.168 227.253 206.168 227.247C206.168 227.241 206.168 227.236 206.168 227.23C206.168 227.224 206.168 227.219 206.168 227.213C206.168 227.208 206.168 227.202 206.168 227.196C206.168 227.191 206.168 227.185 206.168 227.18C206.168 227.174 206.168 227.169 206.168 227.163C206.168 227.158 206.168 227.152 206.168 227.147C206.168 227.142 206.168 227.136 206.168 227.131C206.168 227.125 206.168 227.12 206.168 227.115C206.168 227.109 206.168 227.104 206.168 227.099C206.168 227.094 206.168 227.088 206.168 227.083C206.168 227.078 206.168 227.073 206.168 227.068C206.168 227.062 206.168 227.057 206.168 227.052C206.168 227.047 206.168 227.042 206.168 227.037C206.168 227.032 206.168 227.027 206.168 227.022C206.168 227.017 206.168 227.012 206.168 227.007C206.168 227.002 206.168 226.997 206.168 226.992C206.168 226.987 206.168 226.982 206.168 226.977C206.168 226.972 206.168 226.967 206.168 226.962C206.168 226.957 206.168 226.953 206.168 226.948C206.168 226.943 206.168 226.938 206.168 226.934C206.168 226.929 206.168 226.924 206.168 226.919C206.168 226.915 206.168 226.91 206.168 226.905C206.168 226.901 206.168 226.896 206.168 226.892C206.168 226.887 206.168 226.882 206.168 226.878C206.168 226.873 206.168 226.869 206.168 226.864C206.168 226.86 206.168 226.855 206.168 226.851C206.168 226.846 206.168 226.842 206.168 226.838C206.168 226.833 206.168 226.829 206.168 226.825C206.168 226.82 206.168 226.816 206.168 226.812C206.168 226.807 206.168 226.803 206.168 226.799C206.168 226.795 206.168 226.79 206.168 226.786C206.168 226.782 206.168 226.778 206.168 226.774C206.168 226.77 206.168 226.766 206.168 226.761C206.168 226.757 206.168 226.753 206.168 226.749C206.168 226.745 206.168 226.741 206.168 226.737C206.168 226.733 206.168 226.729 206.168 226.726C206.168 226.722 206.168 226.718 206.168 226.714C206.168 226.71 206.168 226.706 206.168 226.702C206.168 226.699 206.168 226.695 206.168 226.691C206.168 226.687 206.168 226.684 206.168 226.68C206.168 226.676 206.168 226.673 206.168 226.669C206.168 226.665 206.168 226.662 206.168 226.658C206.168 226.655 206.168 226.651 206.168 226.647C206.168 226.644 206.168 226.64 206.168 226.637C206.168 226.633 206.168 226.63 206.168 226.627C206.168 226.623 206.168 226.62 206.168 226.616C206.168 226.613 206.168 226.61 206.168 226.606C206.168 226.603 206.168 226.6 206.168 226.597C206.168 226.593 206.168 226.59 206.168 226.587C206.168 226.584 206.168 226.581 206.168 226.577C206.168 226.574 206.168 226.571 206.168 226.568C206.168 226.565 206.168 226.562 206.168 226.559C206.168 226.556 206.168 226.553 206.168 226.55C206.168 226.547 206.168 226.544 206.168 226.541C206.168 226.538 206.168 226.536 206.168 226.533C206.168 226.53 206.168 226.527 206.168 226.524C206.168 226.521 206.168 226.519 206.168 226.516C206.168 226.513 206.168 226.511 206.168 226.508C206.168 226.505 206.168 226.503 206.168 226.5H204.668C204.668 226.503 204.668 226.505 204.668 226.508C204.668 226.511 204.668 226.513 204.668 226.516C204.668 226.519 204.668 226.521 204.668 226.524C204.668 226.527 204.668 226.53 204.668 226.533C204.668 226.536 204.668 226.538 204.668 226.541C204.668 226.544 204.668 226.547 204.668 226.55C204.668 226.553 204.668 226.556 204.668 226.559C204.668 226.562 204.668 226.565 204.668 226.568C204.668 226.571 204.668 226.574 204.668 226.577C204.668 226.581 204.668 226.584 204.668 226.587C204.668 226.59 204.668 226.593 204.668 226.597C204.668 226.6 204.668 226.603 204.668 226.606C204.668 226.61 204.668 226.613 204.668 226.616C204.668 226.62 204.668 226.623 204.668 226.627C204.668 226.63 204.668 226.633 204.668 226.637C204.668 226.64 204.668 226.644 204.668 226.647C204.668 226.651 204.668 226.655 204.668 226.658C204.668 226.662 204.668 226.665 204.668 226.669C204.668 226.673 204.668 226.676 204.668 226.68C204.668 226.684 204.668 226.687 204.668 226.691C204.668 226.695 204.668 226.699 204.668 226.702C204.668 226.706 204.668 226.71 204.668 226.714C204.668 226.718 204.668 226.722 204.668 226.726C204.668 226.729 204.668 226.733 204.668 226.737C204.668 226.741 204.668 226.745 204.668 226.749C204.668 226.753 204.668 226.757 204.668 226.761C204.668 226.766 204.668 226.77 204.668 226.774C204.668 226.778 204.668 226.782 204.668 226.786C204.668 226.79 204.668 226.795 204.668 226.799C204.668 226.803 204.668 226.807 204.668 226.812C204.668 226.816 204.668 226.82 204.668 226.825C204.668 226.829 204.668 226.833 204.668 226.838C204.668 226.842 204.668 226.846 204.668 226.851C204.668 226.855 204.668 226.86 204.668 226.864C204.668 226.869 204.668 226.873 204.668 226.878C204.668 226.882 204.668 226.887 204.668 226.892C204.668 226.896 204.668 226.901 204.668 226.905C204.668 226.91 204.668 226.915 204.668 226.919C204.668 226.924 204.668 226.929 204.668 226.934C204.668 226.938 204.668 226.943 204.668 226.948C204.668 226.953 204.668 226.957 204.668 226.962C204.668 226.967 204.668 226.972 204.668 226.977C204.668 226.982 204.668 226.987 204.668 226.992C204.668 226.997 204.668 227.002 204.668 227.007C204.668 227.012 204.668 227.017 204.668 227.022C204.668 227.027 204.668 227.032 204.668 227.037C204.668 227.042 204.668 227.047 204.668 227.052C204.668 227.057 204.668 227.062 204.668 227.068C204.668 227.073 204.668 227.078 204.668 227.083C204.668 227.088 204.668 227.094 204.668 227.099C204.668 227.104 204.668 227.109 204.668 227.115C204.668 227.12 204.668 227.125 204.668 227.131C204.668 227.136 204.668 227.142 204.668 227.147C204.668 227.152 204.668 227.158 204.668 227.163C204.668 227.169 204.668 227.174 204.668 227.18C204.668 227.185 204.668 227.191 204.668 227.196C204.668 227.202 204.668 227.208 204.668 227.213C204.668 227.219 204.668 227.224 204.668 227.23C204.668 227.236 204.668 227.241 204.668 227.247C204.668 227.253 204.668 227.258 204.668 227.264C204.668 227.27 204.668 227.276 204.668 227.281C204.668 227.287 204.668 227.293 204.668 227.299C204.668 227.305 204.668 227.31 204.668 227.316C204.668 227.322 204.668 227.328 204.668 227.334C204.668 227.34 204.668 227.346 204.668 227.352C204.668 227.358 204.668 227.364 204.668 227.37C204.668 227.376 204.668 227.382 204.668 227.388C204.668 227.394 204.668 227.4 204.668 227.406C204.668 227.412 204.668 227.418 204.668 227.424C204.668 227.43 204.668 227.437 204.668 227.443C204.668 227.449 204.668 227.455 204.668 227.461C204.668 227.467 204.668 227.474 204.668 227.48C204.668 227.486 204.668 227.492 204.668 227.499C204.668 227.505 204.668 227.511 204.668 227.518C204.668 227.524 204.668 227.53 204.668 227.537C204.668 227.543 204.668 227.55 204.668 227.556C204.668 227.562 204.668 227.569 204.668 227.575C204.668 227.582 204.668 227.588 204.668 227.595C204.668 227.601 204.668 227.608 204.668 227.614C204.668 227.621 204.668 227.627 204.668 227.634C204.668 227.64 204.668 227.647 204.668 227.654C204.668 227.66 204.668 227.667 204.668 227.674C204.668 227.68 204.668 227.687 204.668 227.694C204.668 227.7 204.668 227.707 204.668 227.714C204.668 227.72 204.668 227.727 204.668 227.734C204.668 227.741 204.668 227.748 204.668 227.754C204.668 227.761 204.668 227.768 204.668 227.775C204.668 227.782 204.668 227.789 204.668 227.795C204.668 227.802 204.668 227.809 204.668 227.816C204.668 227.823 204.668 227.83 204.668 227.837C204.668 227.844 204.668 227.851 204.668 227.858C204.668 227.865 204.668 227.872 204.668 227.879C204.668 227.886 204.668 227.893 204.668 227.9C204.668 227.907 204.668 227.914 204.668 227.921C204.668 227.928 204.668 227.936 204.668 227.943C204.668 227.95 204.668 227.957 204.668 227.964C204.668 227.971 204.668 227.978 204.668 227.986C204.668 227.993 204.668 228 204.668 228.007C204.668 228.015 204.668 228.022 204.668 228.029C204.668 228.036 204.668 228.044 204.668 228.051C204.668 228.058 204.668 228.066 204.668 228.073C204.668 228.08 204.668 228.088 204.668 228.095C204.668 228.103 204.668 228.11 204.668 228.117C204.668 228.125 204.668 228.132 204.668 228.14C204.668 228.147 204.668 228.155 204.668 228.162C204.668 228.17 204.668 228.177 204.668 228.185C204.668 228.192 204.668 228.2 204.668 228.207C204.668 228.215 204.668 228.222 204.668 228.23C204.668 228.237 204.668 228.245 204.668 228.253C204.668 228.26 204.668 228.268 204.668 228.275C204.668 228.283 204.668 228.291 204.668 228.298C204.668 228.306 204.668 228.314 204.668 228.322C204.668 228.329 204.668 228.337 204.668 228.345C204.668 228.352 204.668 228.36 204.668 228.368C204.668 228.376 204.668 228.384 204.668 228.391C204.668 228.399 204.668 228.407 204.668 228.415C204.668 228.423 204.668 228.43 204.668 228.438C204.668 228.446 204.668 228.454 204.668 228.462C204.668 228.47 204.668 228.478 204.668 228.486C204.668 228.494 204.668 228.502 204.668 228.51C204.668 228.517 204.668 228.525 204.668 228.533C204.668 228.541 204.668 228.549 204.668 228.557C204.668 228.565 204.668 228.573 204.668 228.581C204.668 228.59 204.668 228.598 204.668 228.606C204.668 228.614 204.668 228.622 204.668 228.63C204.668 228.638 204.668 228.646 204.668 228.654C204.668 228.662 204.668 228.67 204.668 228.679C204.668 228.687 204.668 228.695 204.668 228.703C204.668 228.711 204.668 228.719 204.668 228.728C204.668 228.736 204.668 228.744 204.668 228.752C204.668 228.761 204.668 228.769 204.668 228.777C204.668 228.785 204.668 228.794 204.668 228.802C204.668 228.81 204.668 228.819 204.668 228.827C204.668 228.835 204.668 228.843 204.668 228.852C204.668 228.86 204.668 228.868 204.668 228.877C204.668 228.885 204.668 228.894 204.668 228.902C204.668 228.91 204.668 228.919 204.668 228.927C204.668 228.936 204.668 228.944 204.668 228.952C204.668 228.961 204.668 228.969 204.668 228.978C204.668 228.986 204.668 228.995 204.668 229.003C204.668 229.012 204.668 229.02 204.668 229.029C204.668 229.037 204.668 229.046 204.668 229.054C204.668 229.063 204.668 229.071 204.668 229.08C204.668 229.089 204.668 229.097 204.668 229.106C204.668 229.114 204.668 229.123 204.668 229.131C204.668 229.14 204.668 229.149 204.668 229.157C204.668 229.166 204.668 229.175 204.668 229.183C204.668 229.192 204.668 229.201 204.668 229.209C204.668 229.218 204.668 229.227 204.668 229.235C204.668 229.244 204.668 229.253 204.668 229.261C204.668 229.27 204.668 229.279 204.668 229.288C204.668 229.296 204.668 229.305 204.668 229.314C204.668 229.323 204.668 229.331 204.668 229.34C204.668 229.349 204.668 229.358 204.668 229.367C204.668 229.375 204.668 229.384 204.668 229.393C204.668 229.402 204.668 229.411 204.668 229.42C204.668 229.428 204.668 229.437 204.668 229.446C204.668 229.455 204.668 229.464 204.668 229.473C204.668 229.482 204.668 229.49 204.668 229.499C204.668 229.508 204.668 229.517 204.668 229.526C204.668 229.535 204.668 229.544 204.668 229.553C204.668 229.562 204.668 229.571 204.668 229.58C204.668 229.589 204.668 229.598 204.668 229.607C204.668 229.616 204.668 229.625 204.668 229.634C204.668 229.643 204.668 229.652 204.668 229.661C204.668 229.67 204.668 229.679 204.668 229.688C204.668 229.697 204.668 229.706 204.668 229.715C204.668 229.724 204.668 229.733 204.668 229.742C204.668 229.751 204.668 229.76 204.668 229.769C204.668 229.778 204.668 229.787 204.668 229.797C204.668 229.806 204.668 229.815 204.668 229.824C204.668 229.833 204.668 229.842 204.668 229.851C204.668 229.86 204.668 229.87 204.668 229.879C204.668 229.888 204.668 229.897 204.668 229.906C204.668 229.915 204.668 229.925 204.668 229.934C204.668 229.943 204.668 229.952 204.668 229.961C204.668 229.971 204.668 229.98 204.668 229.989C204.668 229.998 204.668 230.007 204.668 230.017C204.668 230.026 204.668 230.035 204.668 230.044C204.668 230.054 204.668 230.063 204.668 230.072C204.668 230.081 204.668 230.091 204.668 230.1C204.668 230.109 204.668 230.118 204.668 230.128C204.668 230.137 204.668 230.146 204.668 230.156C204.668 230.165 204.668 230.174 204.668 230.184C204.668 230.193 204.668 230.202 204.668 230.211C204.668 230.221 204.668 230.23 204.668 230.239C204.668 230.249 204.668 230.258 204.668 230.267C204.668 230.277 204.668 230.286 204.668 230.296C204.668 230.305 204.668 230.314 204.668 230.324C204.668 230.333 204.668 230.342 204.668 230.352C204.668 230.361 204.668 230.371 204.668 230.38C204.668 230.389 204.668 230.399 204.668 230.408C204.668 230.418 204.668 230.427 204.668 230.436C204.668 230.446 204.668 230.455 204.668 230.465C204.668 230.474 204.668 230.484 204.668 230.493C204.668 230.502 204.668 230.512 204.668 230.521C204.668 230.531 204.668 230.54 204.668 230.55C204.668 230.559 204.668 230.569 204.668 230.578C204.668 230.588 204.668 230.597 204.668 230.607C204.668 230.616 204.668 230.626 204.668 230.635C204.668 230.645 204.668 230.654 204.668 230.664C204.668 230.673 204.668 230.683 204.668 230.692C204.668 230.702 204.668 230.711 204.668 230.721C204.668 230.73 204.668 230.74 204.668 230.749C204.668 230.759 204.668 230.768 204.668 230.778C204.668 230.787 204.668 230.797 204.668 230.806C204.668 230.816 204.668 230.825 204.668 230.835C204.668 230.845 204.668 230.854 204.668 230.864C204.668 230.873 204.668 230.883 204.668 230.892C204.668 230.902 204.668 230.911 204.668 230.921C204.668 230.931 204.668 230.94 204.668 230.95C204.668 230.959 204.668 230.969 204.668 230.978C204.668 230.988 204.668 230.998 204.668 231.007C204.668 231.017 204.668 231.026 204.668 231.036C204.668 231.046 204.668 231.055 204.668 231.065C204.668 231.074 204.668 231.084 204.668 231.094C204.668 231.103 204.668 231.113 204.668 231.122C204.668 231.132 204.668 231.142 204.668 231.151C204.668 231.161 204.668 231.17 204.668 231.18C204.668 231.19 204.668 231.199 204.668 231.209C204.668 231.219 204.668 231.228 204.668 231.238C204.668 231.247 204.668 231.257 204.668 231.267C204.668 231.276 204.668 231.286 204.668 231.296C204.668 231.305 204.668 231.315 204.668 231.324C204.668 231.334 204.668 231.344 204.668 231.353C204.668 231.363 204.668 231.373 204.668 231.382C204.668 231.392 204.668 231.402 204.668 231.411C204.668 231.421 204.668 231.431 204.668 231.44C204.668 231.45 204.668 231.459 204.668 231.469C204.668 231.479 204.668 231.488 204.668 231.498C204.668 231.508 204.668 231.517 204.668 231.527C204.668 231.537 204.668 231.546 204.668 231.556C204.668 231.566 204.668 231.575 204.668 231.585C204.668 231.595 204.668 231.604 204.668 231.614C204.668 231.624 204.668 231.633 204.668 231.643C204.668 231.652 204.668 231.662 204.668 231.672C204.668 231.681 204.668 231.691 204.668 231.701C204.668 231.71 204.668 231.72 204.668 231.73C204.668 231.739 204.668 231.749 204.668 231.759C204.668 231.768 204.668 231.778 204.668 231.788C204.668 231.797 204.668 231.807 204.668 231.817C204.668 231.826 204.668 231.836 204.668 231.846C204.668 231.855 204.668 231.865 204.668 231.874C204.668 231.884 204.668 231.894 204.668 231.903C204.668 231.913 204.668 231.923 204.668 231.932C204.668 231.942 204.668 231.952 204.668 231.961C204.668 231.971 204.668 231.981 204.668 231.99C204.668 232 204.668 232.009 204.668 232.019C204.668 232.029 204.668 232.038 204.668 232.048C204.668 232.058 204.668 232.067 204.668 232.077C204.668 232.087 204.668 232.096 204.668 232.106C204.668 232.115 204.668 232.125 204.668 232.135C204.668 232.144 204.668 232.154 204.668 232.164C204.668 232.173 204.668 232.183 204.668 232.192C204.668 232.202 204.668 232.212 204.668 232.221C204.668 232.231 204.668 232.24 204.668 232.25C204.668 232.26 204.668 232.269 204.668 232.279C204.668 232.288 204.668 232.298 204.668 232.308C204.668 232.317 204.668 232.327 204.668 232.336C204.668 232.346 204.668 232.356 204.668 232.365C204.668 232.375 204.668 232.384 204.668 232.394C204.668 232.403 204.668 232.413 204.668 232.423C204.668 232.432 204.668 232.442 204.668 232.451C204.668 232.461 204.668 232.47 204.668 232.48C204.668 232.489 204.668 232.499 204.668 232.509C204.668 232.518 204.668 232.528 204.668 232.537C204.668 232.547 204.668 232.556 204.668 232.566C204.668 232.575 204.668 232.585 204.668 232.594C204.668 232.604 204.668 232.613 204.668 232.623C204.668 232.632 204.668 232.642 204.668 232.651C204.668 232.661 204.668 232.67 204.668 232.68C204.668 232.689 204.668 232.699 204.668 232.708C204.668 232.718 204.668 232.727 204.668 232.737C204.668 232.746 204.668 232.756 204.668 232.765C204.668 232.775 204.668 232.784 204.668 232.794C204.668 232.803 204.668 232.813 204.668 232.822C204.668 232.832 204.668 232.841 204.668 232.85C204.668 232.86 204.668 232.869 204.668 232.879C204.668 232.888 204.668 232.898 204.668 232.907C204.668 232.916 204.668 232.926 204.668 232.935C204.668 232.945 204.668 232.954 204.668 232.963C204.668 232.973 204.668 232.982 204.668 232.992C204.668 233.001 204.668 233.01 204.668 233.02C204.668 233.029 204.668 233.039 204.668 233.048C204.668 233.057 204.668 233.067 204.668 233.076C204.668 233.085 204.668 233.095 204.668 233.104C204.668 233.113 204.668 233.123 204.668 233.132C204.668 233.141 204.668 233.151 204.668 233.16C204.668 233.169 204.668 233.179 204.668 233.188C204.668 233.197 204.668 233.206 204.668 233.216C204.668 233.225 204.668 233.234 204.668 233.244C204.668 233.253 204.668 233.262 204.668 233.271C204.668 233.281 204.668 233.29 204.668 233.299C204.668 233.308 204.668 233.318 204.668 233.327C204.668 233.336 204.668 233.345 204.668 233.354C204.668 233.364 204.668 233.373 204.668 233.382C204.668 233.391 204.668 233.4 204.668 233.41C204.668 233.419 204.668 233.428 204.668 233.437C204.668 233.446 204.668 233.455 204.668 233.465C204.668 233.474 204.668 233.483 204.668 233.492C204.668 233.501 204.668 233.51 204.668 233.519C204.668 233.529 204.668 233.538 204.668 233.547C204.668 233.556 204.668 233.565 204.668 233.574C204.668 233.583 204.668 233.592 204.668 233.601C204.668 233.61 204.668 233.619 204.668 233.628C204.668 233.637 204.668 233.646 204.668 233.656C204.668 233.665 204.668 233.674 204.668 233.683C204.668 233.692 204.668 233.701 204.668 233.71C204.668 233.719 204.668 233.728 204.668 233.737C204.668 233.746 204.668 233.755 204.668 233.763C204.668 233.772 204.668 233.781 204.668 233.79C204.668 233.799 204.668 233.808 204.668 233.817C204.668 233.826 204.668 233.835 204.668 233.844C204.668 233.853 204.668 233.862 204.668 233.871C204.668 233.879 204.668 233.888 204.668 233.897C204.668 233.906 204.668 233.915 204.668 233.924C204.668 233.933 204.668 233.941 204.668 233.95C204.668 233.959 204.668 233.968 204.668 233.977C204.668 233.985 204.668 233.994 204.668 234.003C204.668 234.012 204.668 234.021 204.668 234.029C204.668 234.038 204.668 234.047 204.668 234.056C204.668 234.064 204.668 234.073 204.668 234.082C204.668 234.09 204.668 234.099 204.668 234.108C204.668 234.117 204.668 234.125 204.668 234.134C204.668 234.143 204.668 234.151 204.668 234.16C204.668 234.169 204.668 234.177 204.668 234.186C204.668 234.194 204.668 234.203 204.668 234.212C204.668 234.22 204.668 234.229 204.668 234.237C204.668 234.246 204.668 234.255 204.668 234.263C204.668 234.272 204.668 234.28 204.668 234.289C204.668 234.297 204.668 234.306 204.668 234.314C204.668 234.323 204.668 234.331 204.668 234.34C204.668 234.348 204.668 234.357 204.668 234.365C204.668 234.374 204.668 234.382 204.668 234.391C204.668 234.399 204.668 234.407 204.668 234.416C204.668 234.424 204.668 234.433 204.668 234.441C204.668 234.449 204.668 234.458 204.668 234.466C204.668 234.474 204.668 234.483 204.668 234.491C204.668 234.5 204.668 234.508 204.668 234.516C204.668 234.524 204.668 234.533 204.668 234.541C204.668 234.549 204.668 234.558 204.668 234.566C204.668 234.574 204.668 234.582 204.668 234.591C204.668 234.599 204.668 234.607 204.668 234.615C204.668 234.623 204.668 234.632 204.668 234.64C204.668 234.648 204.668 234.656 204.668 234.664C204.668 234.672 204.668 234.681 204.668 234.689C204.668 234.697 204.668 234.705 204.668 234.713C204.668 234.721 204.668 234.729 204.668 234.737C204.668 234.745 204.668 234.753 204.668 234.761C204.668 234.769 204.668 234.777 204.668 234.785C204.668 234.793 204.668 234.801 204.668 234.809C204.668 234.817 204.668 234.825 204.668 234.833C204.668 234.841 204.668 234.849 204.668 234.857C204.668 234.865 204.668 234.873 204.668 234.881C204.668 234.889 204.668 234.897 204.668 234.904C204.668 234.912 204.668 234.92 204.668 234.928C204.668 234.936 204.668 234.944 204.668 234.951C204.668 234.959 204.668 234.967 204.668 234.975C204.668 234.982 204.668 234.99 204.668 234.998C204.668 235.006 204.668 235.013 204.668 235.021C204.668 235.029 204.668 235.036 204.668 235.044C204.668 235.052 204.668 235.059 204.668 235.067C204.668 235.075 204.668 235.082 204.668 235.09C204.668 235.098 204.668 235.105 204.668 235.113C204.668 235.12 204.668 235.128 204.668 235.135C204.668 235.143 204.668 235.151 204.668 235.158C204.668 235.166 204.668 235.173 204.668 235.181C204.668 235.188 204.668 235.195 204.668 235.203C204.668 235.21 204.668 235.218 204.668 235.225C204.668 235.233 204.668 235.24 204.668 235.247C204.668 235.255 204.668 235.262 204.668 235.269C204.668 235.277 204.668 235.284 204.668 235.291C204.668 235.299 204.668 235.306 204.668 235.313C204.668 235.321 204.668 235.328 204.668 235.335C204.668 235.342 204.668 235.35 204.668 235.357C204.668 235.364 204.668 235.371 204.668 235.378C204.668 235.385 204.668 235.393 204.668 235.4C204.668 235.407 204.668 235.414 204.668 235.421C204.668 235.428 204.668 235.435 204.668 235.442C204.668 235.449 204.668 235.456 204.668 235.463C204.668 235.47 204.668 235.477 204.668 235.484C204.668 235.491 204.668 235.498 204.668 235.505C204.668 235.512 204.668 235.519 204.668 235.526C204.668 235.533 204.668 235.54 204.668 235.547C204.668 235.554 204.668 235.561 204.668 235.567C204.668 235.574 204.668 235.581 204.668 235.588C204.668 235.595 204.668 235.601 204.668 235.608C204.668 235.615 204.668 235.622 204.668 235.628C204.668 235.635 204.668 235.642 204.668 235.649C204.668 235.655 204.668 235.662 204.668 235.669C204.668 235.675 204.668 235.682 204.668 235.688C204.668 235.695 204.668 235.702 204.668 235.708C204.668 235.715 204.668 235.721 204.668 235.728C204.668 235.734 204.668 235.741 204.668 235.747C204.668 235.754 204.668 235.76 204.668 235.767C204.668 235.773 204.668 235.78 204.668 235.786C204.668 235.793 204.668 235.799 204.668 235.805C204.668 235.812 204.668 235.818 204.668 235.824C204.668 235.831 204.668 235.837 204.668 235.843C204.668 235.85 204.668 235.856 204.668 235.862C204.668 235.868 204.668 235.874 204.668 235.881C204.668 235.887 204.668 235.893 204.668 235.899C204.668 235.905 204.668 235.912 204.668 235.918C204.668 235.924 204.668 235.93 204.668 235.936C204.668 235.942 204.668 235.948 204.668 235.954C204.668 235.96 204.668 235.966 204.668 235.972C204.668 235.978 204.668 235.984 204.668 235.99C204.668 235.996 204.668 236.002 204.668 236.008C204.668 236.014 204.668 236.02 204.668 236.025C204.668 236.031 204.668 236.037 204.668 236.043C204.668 236.049 204.668 236.055 204.668 236.06C204.668 236.066 204.668 236.072 204.668 236.078C204.668 236.083 204.668 236.089 204.668 236.095C204.668 236.1 204.668 236.106 204.668 236.112C204.668 236.117 204.668 236.123 204.668 236.129C204.668 236.134 204.668 236.14 204.668 236.145C204.668 236.151 204.668 236.156 204.668 236.162C204.668 236.167 204.668 236.173 204.668 236.178C204.668 236.184 204.668 236.189 204.668 236.195C204.668 236.2 204.668 236.205 204.668 236.211C204.668 236.216 204.668 236.221 204.668 236.227C204.668 236.232 204.668 236.237 204.668 236.243C204.668 236.248 204.668 236.253 204.668 236.258C204.668 236.264 204.668 236.269 204.668 236.274C204.668 236.279 204.668 236.284 204.668 236.289C204.668 236.295 204.668 236.3 204.668 236.305C204.668 236.31 204.668 236.315 204.668 236.32C204.668 236.325 204.668 236.33 204.668 236.335C204.668 236.34 204.668 236.345 204.668 236.35C204.668 236.355 204.668 236.36 204.668 236.364C204.668 236.369 204.668 236.374 204.668 236.379C204.668 236.384 204.668 236.389 204.668 236.393C204.668 236.398 204.668 236.403 204.668 236.408C204.668 236.412 204.668 236.417 204.668 236.422C204.668 236.427 204.668 236.431 204.668 236.436C204.668 236.44 204.668 236.445 204.668 236.45C204.668 236.454 204.668 236.459 204.668 236.463C204.668 236.468 204.668 236.472 204.668 236.477C204.668 236.481 204.668 236.486 204.668 236.49C204.668 236.495 204.668 236.499 204.668 236.503C204.668 236.508 204.668 236.512 204.668 236.517C204.668 236.521 204.668 236.525 204.668 236.529C204.668 236.534 204.668 236.538 204.668 236.542C204.668 236.546 204.668 236.551 204.668 236.555C204.668 236.559 204.668 236.563 204.668 236.567C204.668 236.571 204.668 236.575 204.668 236.579C204.668 236.584 204.668 236.588 204.668 236.592C204.668 236.596 204.668 236.6 204.668 236.604C204.668 236.607 204.668 236.611 204.668 236.615C204.668 236.619 204.668 236.623 204.668 236.627C204.668 236.631 204.668 236.635 204.668 236.638C204.668 236.642 204.668 236.646 204.668 236.65C204.668 236.653 204.668 236.657 204.668 236.661C204.668 236.665 204.668 236.668 204.668 236.672C204.668 236.675 204.668 236.679 204.668 236.683C204.668 236.686 204.668 236.69 204.668 236.693C204.668 236.697 204.668 236.7 204.668 236.704C204.668 236.707 204.668 236.711 204.668 236.714C204.668 236.717 204.668 236.721 204.668 236.724C204.668 236.728 204.668 236.731 204.668 236.734C204.668 236.737 204.668 236.741 204.668 236.744C204.668 236.747 204.668 236.75 204.668 236.754C204.668 236.757 204.668 236.76 204.668 236.763C204.668 236.766 204.668 236.769 204.668 236.772C204.668 236.775 204.668 236.778 204.668 236.781C204.668 236.784 204.668 236.787 204.668 236.79C204.668 236.793 204.668 236.796 204.668 236.799C204.668 236.802 204.668 236.805 204.668 236.808C204.668 236.811 204.668 236.813 204.668 236.816C204.668 236.819 204.668 236.822 204.668 236.824C204.668 236.827 204.668 236.83 204.668 236.832C204.668 236.835 204.668 236.838 204.668 236.84C204.668 236.843 204.668 236.845 204.668 236.848C204.668 236.85 204.668 236.853 204.668 236.855C204.668 236.858 204.668 236.86 204.668 236.863C204.668 236.865 204.668 236.868 204.668 236.87C204.668 236.872 204.668 236.875 204.668 236.877C204.668 236.879 204.668 236.881 204.668 236.884C204.668 236.886 204.668 236.888 204.668 236.89C204.668 236.892 204.668 236.895 204.668 236.897C204.668 236.899 204.668 236.901 204.668 236.903C204.668 236.905 204.668 236.907 204.668 236.909C204.668 236.911 204.668 236.913 204.668 236.915C204.668 236.917 204.668 236.919 204.668 236.921C204.668 236.922 204.668 236.924 204.668 236.926C204.668 236.928 204.668 236.93 204.668 236.931C204.668 236.933 204.668 236.935 204.668 236.936C204.668 236.938 204.668 236.94 204.668 236.941C204.668 236.943 204.668 236.945 204.668 236.946C204.668 236.948 204.668 236.949 204.668 236.951C204.668 236.952 204.668 236.953 204.668 236.955C204.668 236.956 204.668 236.958 204.668 236.959C204.668 236.96 204.668 236.962 204.668 236.963C204.668 236.964 204.668 236.966 204.668 236.967C204.668 236.968 204.668 236.969 204.668 236.97C204.668 236.971 204.668 236.973 204.668 236.974C204.668 236.975 204.668 236.976 204.668 236.977C204.668 236.978 204.668 236.979 204.668 236.98C204.668 236.981 204.668 236.982 204.668 236.983C204.668 236.983 204.668 236.984 204.668 236.985C204.668 236.986 204.668 236.987 204.668 236.987C204.668 236.988 204.668 236.989 204.668 236.99C204.668 236.99 204.668 236.991 204.668 236.992C204.668 236.992 204.668 236.993 204.668 236.993C204.668 236.994 204.668 236.994 204.668 236.995C204.668 236.995 204.668 236.996 204.668 236.996C204.668 236.997 204.668 236.997 204.668 236.997C204.668 236.998 204.668 236.998 204.668 236.998C204.668 236.999 204.668 236.999 204.668 236.999C204.668 236.999 204.668 236.999 204.668 237C204.668 237 204.668 237 204.668 237C204.668 237 204.668 237 205.418 237ZM205.418 227.25H212.418V225.75H205.418V227.25Z" fill="black"/>
<path d="M221.73 245L220.23 277L226.73 278V245.5L221.73 245Z" fill="#41097C"/>
<rect x="210.418" y="222" width="35" height="9" rx="2" fill="#290055"/>
<path d="M88.9182 381C86.9182 374.2 98.7516 345.5 104.918 332L123.918 372L104.918 403C100.418 398.5 90.9182 387.8 88.9182 381Z" fill="#175EC6"/>
<path d="M217.413 266.015C212.213 270.015 212.246 278.015 212.913 281.515V283.515C212.913 283.915 219.246 287.682 222.413 289.515C222.913 289.182 224.313 288.015 225.913 286.015C227.913 283.515 226.913 282.015 226.413 281.515C227.913 281.515 233.413 280.515 235.913 279.015C237.913 277.815 235.746 276.515 234.413 276.015C235.079 275.682 236.613 274.615 237.413 273.015C238.213 271.415 235.413 271.015 233.913 271.015C234.579 270.848 235.913 270.115 235.913 268.515C235.913 266.915 233.913 266.515 232.913 266.515C233.713 265.715 233.913 264.849 233.913 264.515C235.413 260.515 223.913 261.015 217.413 266.015Z" fill="#FBBDAA"/>
<mask id="mask5" mask-type="alpha" maskUnits="userSpaceOnUse" x="212" y="261" width="26" height="29">
<path d="M217.413 266.015C212.213 270.015 212.246 278.015 212.913 281.515V283.515C212.913 283.915 219.246 287.682 222.413 289.515C222.913 289.182 224.313 288.015 225.913 286.015C227.913 283.515 226.913 282.015 226.413 281.515C227.913 281.515 233.413 280.515 235.913 279.015C237.913 277.815 235.746 276.515 234.413 276.015C235.079 275.682 236.613 274.615 237.413 273.015C238.213 271.415 235.413 271.015 233.913 271.015C234.579 270.848 235.913 270.115 235.913 268.515C235.913 266.915 233.913 266.515 232.913 266.515C233.713 265.715 233.913 264.849 233.913 264.515C235.413 260.515 223.913 261.015 217.413 266.015Z" fill="#FBBDAA"/>
</mask>
<g mask="url(#mask5)">
<path d="M223.5 269C226.3 267 231 266.5 233 266.5C233.333 266.333 234 265.9 234 265.5C234 265 234.5 264.5 230.5 265C227.3 265.4 224.5 267.833 223.5 269Z" fill="#EA8080"/>
<path d="M226.5 273C228.1 272.2 232.167 271.333 234 271L236 270.5C235.5 270.333 234.1 270 232.5 270C230.9 270 227.833 272 226.5 273Z" fill="#EA8080"/>
<path d="M227 276.5C228 276.333 231.2 276 236 276C236 274.833 234.2 273.3 227 276.5Z" fill="#EA8080"/>
</g>
<path d="M182.346 326.015L154.913 296.015C152.746 307.348 145.513 329.482 156.918 336.5C169.918 344.5 179.918 355 189.418 350.5C197.018 346.9 218.512 305.015 225.346 288.015L212.846 280.515L182.346 326.015Z" fill="url(#paint8_linear)"/>
<mask id="mask6" mask-type="alpha" maskUnits="userSpaceOnUse" x="150" y="280" width="76" height="72">
<path d="M182.346 326.015L154.913 296.015C152.746 307.348 145.513 329.482 156.918 336.5C169.918 344.5 179.918 355 189.418 350.5C197.018 346.9 218.512 305.015 225.346 288.015L212.846 280.515L182.346 326.015Z" fill="#E03E3D"/>
</mask>
<g mask="url(#mask6)">
<path d="M179.918 343C171.918 336.5 179.918 322.5 179.918 321V317C171.084 320.167 153.118 326.9 151.918 328.5C150.718 330.1 158.751 348.833 162.918 358L200.418 365.5L223.418 294.5C211.584 312.833 186.318 348.2 179.918 343Z" fill="#175EC6"/>
</g>
<path d="M99.1755 405.744C100.679 376.027 112.205 356.99 112.706 354.204C128.741 348.013 161.314 339.346 163.319 354.204C165.824 372.777 181.86 434.068 192.885 476.786C201.704 510.961 203.575 543.34 203.408 555.257C194.054 562.222 174.744 573.83 172.339 564.544C169.332 552.936 159.811 554.329 124.733 555.257C89.6544 556.186 68.6074 519.04 65.6007 515.325C62.594 511.611 97.6722 435.461 99.1755 405.744Z" fill="#E03E3D"/>
<path d="M99.1755 405.744C100.679 376.027 112.205 356.99 112.706 354.204C128.741 348.013 161.314 339.346 163.319 354.204C165.824 372.777 181.86 434.068 192.885 476.786C201.704 510.961 203.575 543.34 203.408 555.257C194.054 562.222 174.744 573.83 172.339 564.544C169.332 552.936 159.811 554.329 124.733 555.257C89.6544 556.186 68.6074 519.04 65.6007 515.325C62.594 511.611 97.6722 435.461 99.1755 405.744Z" fill="url(#paint9_linear)"/>
<mask id="mask7" mask-type="alpha" maskUnits="userSpaceOnUse" x="65" y="346" width="139" height="222">
<path d="M99.1755 405.744C100.679 376.027 112.205 356.99 112.706 354.204C128.741 348.013 161.314 339.346 163.319 354.204C165.824 372.777 181.86 434.068 192.885 476.786C201.704 510.961 203.575 543.34 203.408 555.257C194.054 562.222 174.744 573.83 172.339 564.544C169.332 552.936 159.811 554.329 124.733 555.257C89.6544 556.186 68.6074 519.04 65.6007 515.325C62.594 511.611 97.6722 435.461 99.1755 405.744Z" fill="#E03E3D"/>
</mask>
<g mask="url(#mask7)">
<path d="M94.918 502C95.318 476.8 115.751 393.833 125.918 355.5C130.751 351.167 138.718 346.2 131.918 361C125.118 375.8 104.418 461.167 94.918 502Z" fill="#175EC6"/>
<path d="M153.418 555L144.418 355.5L169.918 561L153.418 555Z" fill="#175EC6"/>
<path d="M183.418 489.5C174.418 445 156.418 355.3 156.418 352.5L162.918 355.5L183.418 489.5Z" fill="#175EC6"/>
</g>
<path d="M140.418 269.5C143.418 275.5 150.918 282 159.418 281.5C159.918 281 161.1 284.015 162.6 287.015C164.1 290.015 185.6 318.515 178.6 321.515C171.6 324.515 171.1 334.015 167.6 351.515C164.1 369.015 158.1 363.015 150.6 360.015C143.1 357.015 137.1 378.015 121.601 367.515C106.101 357.015 88.4179 359.5 89.9179 348.5C91.4179 337.5 112.601 313.515 110.601 306.015C109.001 300.015 120.085 279.667 124.418 274.5C120.418 266 115.601 269.515 112.601 253.015C109.601 236.515 119.094 217.015 137.1 217.015C158.418 217.015 159.918 223.985 159.918 228C158.345 227.685 156.634 224.75 153.918 225C149.439 225.412 142.418 229.5 139.1 234.015C132.189 243.422 136.545 261.754 140.418 269.5Z" fill="url(#paint10_linear)"/>
<mask id="mask8" mask-type="alpha" maskUnits="userSpaceOnUse" x="89" y="217" width="91" height="154">
<path d="M137.6 269.515C144.941 282.729 154.085 284 159.418 282.5C160.418 282.261 161.1 284.015 162.6 287.015C164.1 290.015 185.6 318.515 178.6 321.515C171.6 324.515 171.1 334.015 167.6 351.515C164.1 369.015 158.1 363.015 150.6 360.015C143.1 357.015 137.1 378.015 121.601 367.515C106.101 357.015 88.4179 359.5 89.9179 348.5C91.4179 337.5 112.601 313.515 110.601 306.015C109.001 300.015 120.085 279.667 124.418 274.5C120.418 266 115.601 269.515 112.601 253.015C109.601 236.515 119.094 217.015 137.1 217.015C158.418 217.015 159.918 223.985 159.918 228C158.345 227.685 156.634 224.75 153.918 225C149.439 225.412 142.418 229.5 139.1 234.015C132.189 243.422 132.6 260.515 137.6 269.515Z" fill="#00C8B9"/>
</mask>
<g mask="url(#mask8)">
<path d="M135.418 217C122.918 219.5 109.918 239.5 117.918 255C123.993 266.77 132.95 276.167 134.7 276.949C134.774 276.966 134.846 276.983 134.918 277C134.867 277.008 134.794 276.991 134.7 276.949C127.461 275.265 113.21 271.896 112.418 271.5C111.618 271.1 105.085 239.333 101.918 223.5L118.918 209.5L135.418 217Z" fill="#F4713B"/>
<path d="M116.418 309.5C108.918 312.5 109.418 302.5 109.418 300.5L103.918 309.5C104.418 312 106.818 317.2 112.418 318C118.018 318.8 135.751 303 143.918 295C137.251 298.833 122.418 307.1 116.418 309.5Z" fill="#F4713B"/>
<path d="M135.918 311.5L168.418 344L172.418 351C170.585 356 166.918 364.5 166.918 358.5C166.918 352.5 146.251 324.667 135.918 311.5Z" fill="#F4713B"/>
<path d="M116.418 347C111.418 359 103.918 361.5 100.418 361L113.418 366L126.418 320.5C124.751 325.333 120.418 337.4 116.418 347Z" fill="#F4713B"/>
<path d="M140.418 341.5C141.618 348.7 141.918 360.167 141.918 365L151.418 361L137.918 329C138.251 330.167 139.218 334.3 140.418 341.5Z" fill="#F4713B"/>
</g>
<path d="M579.418 245.5C583.018 241.9 581.584 235.666 580.418 233C586.751 229.5 599.218 223.5 598.418 227.5C597.618 231.5 597.418 241.166 597.418 245.5C589.918 247 575.818 249.1 579.418 245.5Z" fill="#FBBDAA"/>
<mask id="mask9" mask-type="alpha" maskUnits="userSpaceOnUse" x="578" y="226" width="21" height="22">
<path d="M579.418 245.5C583.018 241.9 581.584 235.666 580.418 233C586.751 229.5 599.218 223.5 598.418 227.5C597.618 231.5 597.418 241.166 597.418 245.5C589.918 247 575.818 249.1 579.418 245.5Z" fill="#FBBDAA"/>
</mask>
<g mask="url(#mask9)">
<path d="M599.918 228C592.718 236 583.251 241.667 579.418 242L567.418 235C581.251 229.333 607.118 220 599.918 228Z" fill="#EA8080"/>
</g>
<path d="M563.784 190.857C564.823 176.838 575.213 174.334 577.811 173.834C603.787 169.828 606.385 181.344 605.346 185.349L600.207 205.159C600.805 205.141 601.98 205.19 603.918 205.377C609.113 205.877 607.84 212.656 605.918 216.5C604.418 219.5 600.418 218 599.418 219C599.764 219 597.062 224.476 595.994 227.908C594.436 232.914 586.643 234.917 586.643 234.917C577.811 236 572.387 237.597 567.918 234C561.706 229 563.418 223.718 563.418 219C563.418 216 560.918 218.5 558.918 214C557.903 211.715 560.825 209.031 561.706 208.882C566.918 208 562.745 204.876 563.784 190.857Z" fill="#FBBDAA"/>
<path d="M594.418 191C593.618 199 599.418 204 599.918 205.5C607.418 204 607.838 210.615 606.418 215C605.287 218.49 602.084 217.5 599.418 219L594.918 230C594.918 230 598.318 231.383 607.418 218C615.918 205.5 615.814 186.724 608.918 175C603.918 166.5 587.918 157.5 571.918 161C558.626 163.907 561.585 172.667 563.918 177.5C558.418 178.5 549.418 187.5 560.918 192.5C570.118 196.5 587.918 192.667 594.418 191Z" fill="#290055"/>
<ellipse cx="571.418" cy="206" rx="3" ry="4" fill="white"/>
<mask id="mask10" mask-type="alpha" maskUnits="userSpaceOnUse" x="568" y="202" width="7" height="8">
<ellipse cx="571.418" cy="206" rx="3" ry="4" fill="white"/>
</mask>
<g mask="url(#mask10)">
<ellipse cx="569.918" cy="206" rx="2.5" ry="3" fill="#290055"/>
</g>
<path d="M565.418 222.598C566.585 223.598 569.918 224.598 573.918 220.598" stroke="#290055"/>
<path d="M570.109 196.297C574.691 194.886 578.891 198.844 580.418 201C574.003 199.119 574.418 199.824 569.536 199.824C567.918 199.5 565.527 197.708 570.109 196.297Z" fill="#290055"/>
<path d="M575.918 206.5C575.918 208.747 575.221 210.763 574.117 212.207C573.013 213.65 571.524 214.5 569.918 214.5C568.312 214.5 566.822 213.65 565.719 212.207C564.615 210.763 563.918 208.747 563.918 206.5C563.918 204.253 564.615 202.237 565.719 200.793C566.822 199.35 568.312 198.5 569.918 198.5C571.524 198.5 573.013 199.35 574.117 200.793C575.221 202.237 575.918 204.253 575.918 206.5Z" stroke="white"/>
<path d="M575.918 206.5L600.418 205" stroke="white"/>
<path d="M600.072 209.301C599.943 209.545 600.036 209.848 600.28 209.977C600.524 210.107 600.827 210.014 600.956 209.77L600.072 209.301ZM603.856 209.085L603.408 209.307L603.856 209.085ZM602.185 214.941L602.091 214.45L602.185 214.941ZM601.183 212.689L600.978 212.233L601.183 212.689ZM604.121 212.92L604.603 213.053L604.121 212.92ZM600.956 209.77C601.202 209.306 601.694 208.763 602.178 208.57C602.402 208.481 602.591 208.479 602.759 208.553C602.936 208.631 603.172 208.83 603.408 209.307L604.304 208.863C604.005 208.259 603.626 207.842 603.163 207.638C602.692 207.43 602.217 207.478 601.808 207.641C601.028 207.951 600.384 208.714 600.072 209.301L600.956 209.77ZM602.091 214.45C601.571 214.55 601.284 214.482 601.141 214.404C601.015 214.335 600.947 214.228 600.925 214.079C600.901 213.916 600.936 213.711 601.033 213.52C601.131 213.328 601.265 213.2 601.388 213.145L600.978 212.233C600.599 212.403 600.316 212.725 600.142 213.068C599.967 213.412 599.877 213.826 599.936 214.226C599.998 214.64 600.223 215.04 600.66 215.281C601.081 215.512 601.63 215.557 602.28 215.432L602.091 214.45ZM603.408 209.307C603.764 210.027 603.9 210.572 603.916 211.079C603.933 211.595 603.827 212.109 603.639 212.786L604.603 213.053C604.796 212.357 604.937 211.722 604.916 211.047C604.894 210.364 604.708 209.679 604.304 208.863L603.408 209.307ZM603.639 212.786C603.382 213.714 602.855 214.303 602.091 214.45L602.28 215.432C603.536 215.19 604.281 214.213 604.603 213.053L603.639 212.786ZM601.388 213.145C601.628 213.037 602.069 212.991 602.591 213.04C603.101 213.087 603.591 213.214 603.898 213.367L604.344 212.472C603.894 212.248 603.274 212.099 602.683 212.044C602.104 211.99 601.455 212.018 600.978 212.233L601.388 213.145Z" fill="#EA8181"/>
<ellipse cx="581.418" cy="211.5" rx="4" ry="2.5" fill="#EA8080"/>
<path d="M544.454 556.969C548.854 554.823 548.954 547.849 548.454 544.63C555.954 542.663 570.954 539.266 570.954 541.412C570.954 544.094 572.454 553.75 574.454 559.114C576.454 564.479 573.454 569.307 570.954 574.135C568.454 578.963 516.954 578.427 514.454 578.427C511.954 578.427 508.454 575.208 515.954 566.088C523.454 556.969 538.954 559.651 544.454 556.969Z" fill="#FBBDAA"/>
<path d="M544.418 551.455C542.018 551.884 542.418 555.568 542.918 557.356C527.918 555.21 519.918 559.501 514.418 562.72C509.413 565.649 509.918 572.376 511.418 577.204C512.918 582.032 567.918 575.595 569.418 575.595C570.918 575.595 571.418 574.522 573.918 568.084C575.918 562.935 574.752 558.071 573.918 556.283L557.918 557.892C558.085 556.998 558.218 554.888 557.418 553.601C556.418 551.991 547.418 550.918 544.418 551.455Z" fill="#FB605E"/>
<mask id="mask11" mask-type="alpha" maskUnits="userSpaceOnUse" x="510" y="551" width="66" height="28">
<path d="M544.418 551.455C542.018 551.884 542.418 555.568 542.918 557.356C527.918 555.21 519.918 559.501 514.418 562.72C509.413 565.649 509.918 572.376 511.418 577.204C512.918 582.032 567.918 575.595 569.418 575.595C570.918 575.595 571.418 574.522 573.918 568.084C575.918 562.935 574.752 558.071 573.918 556.283L557.918 557.892C558.085 556.998 558.218 554.888 557.418 553.601C556.418 551.991 547.418 550.918 544.418 551.455Z" fill="#FD5B5B"/>
</mask>
<g mask="url(#mask11)">
<path d="M514.418 561.11C517.585 559.859 524.118 559.716 524.918 569.157V574.522L573.418 570.767M558.418 556.819L551.918 567.012L535.418 567.548C535.418 563.972 534.818 556.819 532.418 556.819M540.918 556.283C542.918 556.64 546.418 560.681 548.418 563.256M536.418 556.283C537.418 556.283 538.918 559.502 541.918 564.329" stroke="white"/>
</g>
<path d="M650.516 537.415C652.719 532.8 648.757 527.27 646.5 525.082C651.235 518.54 661.017 505.874 662.26 507.555C663.814 509.656 670.584 516.219 675.258 519.087C679.933 521.956 680.38 527.738 681.22 533.188C682.059 538.637 641.407 572.564 639.449 574.232C637.491 575.899 632.884 575.712 633.475 563.566C634.066 551.421 647.762 543.184 650.516 537.415Z" fill="#FBBDAA"/>
<path d="M647.293 533.12C645.661 535.057 648.109 537.675 649.537 538.743C636.544 547.066 632.764 555.763 630.321 561.952C628.097 567.585 632.39 572.517 636.363 575.299C640.335 578.08 679.687 536.356 680.862 535.355C682.037 534.355 681.807 533.181 680.036 526.471C678.619 521.103 674.887 518.071 673.198 517.227L661.597 529.158C661.21 528.347 660.092 526.605 658.719 526.13C657.003 525.537 649.332 530.699 647.293 533.12Z" fill="#FF785D"/>
<mask id="mask12" mask-type="alpha" maskUnits="userSpaceOnUse" x="629" y="517" width="53" height="59">
<path d="M647.293 533.12C645.661 535.057 648.109 537.675 649.537 538.743C636.544 547.066 632.764 555.763 630.321 561.952C628.097 567.585 632.39 572.517 636.363 575.299C640.335 578.08 679.687 536.356 680.862 535.355C682.037 534.355 681.807 533.181 680.036 526.471C678.619 521.103 674.887 518.071 673.198 517.227L661.597 529.158C661.21 528.347 660.092 526.605 658.719 526.13C657.003 525.537 649.332 530.699 647.293 533.12Z" fill="#FD5B5B"/>
</mask>
<g mask="url(#mask12)">
<path d="M629.388 560.692C631.143 557.6 636.178 553.13 642.275 559.992L645.383 564.195L681.198 528.906M661.367 527.985L662.181 540.304L649.567 551.729C647.495 548.927 642.881 543.725 641.001 545.326M647.349 539.236C649.122 538.183 654.205 539.014 657.264 539.697M643.824 542.238C644.607 541.571 647.647 543.092 652.794 544.872" stroke="white"/>
</g>
<path d="M527.555 449.752C529.164 433.227 551.026 376.365 561.756 350H589.418C580.197 378.213 569.637 444.327 566.418 454C563.199 463.673 571.044 514.78 577.918 544C570.273 541.985 552.032 547.321 545.661 549C538.955 522.803 525.945 466.276 527.555 449.752Z" fill="#290055"/>
<path d="M559.974 439.506C556.375 427.837 571.134 374.974 578.964 350.001C587.959 335.193 608.421 306.585 614.418 340C620.415 373.416 607.414 402.947 600.418 423.5C611.212 434.638 646.262 485.916 666.418 508.458C658.422 511.11 651.093 524.591 648.427 531C620.442 505.364 563.572 451.175 559.974 439.506Z" fill="#251782"/>
<path d="M575.418 248C569.818 252.4 565.085 266.833 563.418 273.5L559.418 352H569.418C590.218 351.6 608.751 345.833 615.418 343C615.818 339.8 609.918 284.333 606.918 257C605.251 252 600.618 242.6 595.418 245C588.918 248 582.418 242.5 575.418 248Z" fill="url(#paint11_linear)"/>
<mask id="mask13" mask-type="alpha" maskUnits="userSpaceOnUse" x="559" y="244" width="57" height="108">
<path d="M575.418 248C569.818 252.4 565.085 266.833 563.418 273.5L559.418 352H569.418C590.218 351.6 608.751 345.833 615.418 343C615.818 339.8 609.918 284.333 606.918 257C605.251 252 600.618 242.6 595.418 245C588.918 248 582.418 242.5 575.418 248Z" fill="url(#paint12_linear)"/>
</mask>
<g mask="url(#mask13)">
<path d="M540.067 275.752C543.068 275.442 587.019 289.925 620.844 274.858M542.347 297.842C552.687 300.082 602.71 304.842 633.541 295.046" stroke="white" stroke-width="5"/>
</g>
<rect x="420.418" y="276.159" width="143.57" height="87.2466" rx="10" transform="rotate(-15 420.418 276.159)" fill="#5D41F7"/>
<rect x="420.418" y="276.159" width="143.57" height="87.2466" rx="10" transform="rotate(-15 420.418 276.159)" fill="url(#paint13_linear)"/>
<rect x="428.418" y="279.651" width="130.019" height="76.4678" rx="10" transform="rotate(-15 428.418 279.651)" fill="#DBBAFF" fill-opacity="0.2"/>
<path d="M465.108 317.485L455.27 311.224C455.097 311.114 454.867 311.206 454.818 311.405L453.161 318.113C453.113 318.307 453.264 318.492 453.464 318.485L464.958 318.038C465.252 318.026 465.356 317.643 465.108 317.485Z" fill="white"/>
<path d="M458.135 335.976L453.316 329.566C453.193 329.402 453.267 329.166 453.461 329.101L466.204 324.883C466.482 324.791 466.714 325.112 466.538 325.347L458.615 335.975C458.495 336.135 458.255 336.136 458.135 335.976Z" fill="white"/>
<path d="M471.479 339.046L473.263 325.742C473.304 325.434 473.728 325.384 473.84 325.674L478.299 337.193C478.363 337.358 478.272 337.542 478.102 337.59L471.859 339.374C471.651 339.433 471.45 339.26 471.479 339.046Z" fill="white"/>
<path d="M458.123 293.77C462.435 290.702 471.459 292.442 475.431 293.696L464.341 304.932L460.894 301.614C458.09 300.673 454.96 296.02 458.123 293.77Z" fill="#FFB46F"/>
<path d="M496.959 326.819C499.148 322.001 495.468 312.611 493.479 308.95L484.816 322.845C484.816 322.845 486.759 324.778 488.837 326.357C490.296 328.93 495.353 330.354 496.959 326.819Z" fill="#FFB46F"/>
<path d="M495.882 282.841C497.387 282.123 499.057 283.454 498.694 285.082L489.332 327.049L458.884 300.469L495.882 282.841Z" fill="#FBFBFB"/>
<circle cx="485.363" cy="300.946" r="5.74359" transform="rotate(-15.1364 485.363 300.946)" fill="#FFB46F"/>
<path d="M470.894 320.301L480.216 318.398C480.425 318.355 480.564 318.156 480.531 317.945L479.071 308.492C479.016 308.134 478.553 308.028 478.347 308.325L470.485 319.681C470.28 319.978 470.541 320.373 470.894 320.301Z" fill="#DDDDDD"/>
<path d="M470.318 320.177L469.449 310.351C469.431 310.15 469.565 309.968 469.762 309.925L478.539 308.005C478.891 307.928 479.158 308.32 478.956 308.619L471.048 320.366C470.838 320.678 470.351 320.553 470.318 320.177Z" fill="#FFB46F"/>
<circle cx="536.731" cy="300.632" r="11.1155" transform="rotate(-15.1364 536.731 300.632)" fill="#FBFBFB"/>
<path d="M526.002 303.535C521.592 305.36 517.862 307.497 518.142 308.534C518.623 310.312 527.66 309.414 538.327 306.529C548.993 303.643 557.25 299.863 556.77 298.085C556.468 296.969 552.794 296.908 547.462 297.73" stroke="#FFB46F" stroke-width="2"/>
<path d="M542.66 270.286C543.05 269.616 544.069 269.837 544.147 270.608L544.353 272.64C544.388 272.985 544.641 273.268 544.98 273.341L546.976 273.773C547.734 273.937 547.839 274.975 547.13 275.287L545.261 276.111C544.943 276.251 544.752 276.579 544.787 276.924L544.993 278.956C545.071 279.727 544.117 280.147 543.601 279.569L542.24 278.047C542.009 277.788 541.638 277.708 541.321 277.848L539.452 278.671C538.743 278.984 538.048 278.206 538.438 277.537L539.466 275.772C539.64 275.472 539.602 275.094 539.371 274.836L538.01 273.313C537.493 272.735 538.018 271.834 538.776 271.998L540.772 272.43C541.11 272.504 541.458 272.35 541.632 272.051L542.66 270.286Z" fill="white"/>
<path d="M542.66 270.286C543.05 269.616 544.069 269.837 544.147 270.608L544.353 272.64C544.388 272.985 544.641 273.268 544.98 273.341L546.976 273.773C547.734 273.937 547.839 274.975 547.13 275.287L545.261 276.111C544.943 276.251 544.752 276.579 544.787 276.924L544.993 278.956C545.071 279.727 544.117 280.147 543.601 279.569L542.24 278.047C542.009 277.788 541.638 277.708 541.321 277.848L539.452 278.671C538.743 278.984 538.048 278.206 538.438 277.537L539.466 275.772C539.64 275.472 539.602 275.094 539.371 274.836L538.01 273.313C537.493 272.735 538.018 271.834 538.776 271.998L540.772 272.43C541.11 272.504 541.458 272.35 541.632 272.051L542.66 270.286Z" fill="white"/>
<path d="M517.856 285.996C517.485 285.549 517.902 284.888 518.466 285.031L519.231 285.226C519.483 285.29 519.748 285.185 519.886 284.965L520.308 284.297C520.619 283.805 521.377 283.998 521.414 284.578L521.466 285.366C521.483 285.626 521.665 285.845 521.917 285.909L522.682 286.104C523.246 286.247 523.297 287.027 522.757 287.242L522.023 287.535C521.781 287.631 521.629 287.872 521.646 288.131L521.698 288.92C521.735 289.5 521.009 289.789 520.637 289.342L520.132 288.735C519.966 288.535 519.69 288.465 519.449 288.561L518.715 288.853C518.175 289.069 517.675 288.467 517.985 287.976L518.407 287.308C518.546 287.088 518.527 286.804 518.361 286.604L517.856 285.996Z" fill="white"/>
<path d="M517.856 285.996C517.485 285.549 517.902 284.888 518.466 285.031L519.231 285.226C519.483 285.29 519.748 285.185 519.886 284.965L520.308 284.297C520.619 283.805 521.377 283.998 521.414 284.578L521.466 285.366C521.483 285.626 521.665 285.845 521.917 285.909L522.682 286.104C523.246 286.247 523.297 287.027 522.757 287.242L522.023 287.535C521.781 287.631 521.629 287.872 521.646 288.131L521.698 288.92C521.735 289.5 521.009 289.789 520.637 289.342L520.132 288.735C519.966 288.535 519.69 288.465 519.449 288.561L518.715 288.853C518.175 289.069 517.675 288.467 517.985 287.976L518.407 287.308C518.546 287.088 518.527 286.804 518.361 286.604L517.856 285.996Z" fill="white"/>
<path d="M505.856 327.996C505.485 327.549 505.902 326.888 506.466 327.031L507.231 327.226C507.483 327.29 507.748 327.185 507.886 326.965L508.308 326.297C508.619 325.805 509.377 325.998 509.414 326.578L509.466 327.366C509.483 327.626 509.665 327.845 509.917 327.909L510.682 328.104C511.246 328.247 511.297 329.027 510.757 329.242L510.023 329.535C509.781 329.631 509.629 329.872 509.646 330.131L509.698 330.92C509.735 331.5 509.009 331.789 508.637 331.342L508.132 330.735C507.966 330.535 507.69 330.465 507.449 330.561L506.715 330.853C506.175 331.069 505.675 330.467 505.985 329.976L506.407 329.308C506.546 329.088 506.527 328.804 506.361 328.604L505.856 327.996Z" fill="white"/>
<path d="M505.856 327.996C505.485 327.549 505.902 326.888 506.466 327.031L507.231 327.226C507.483 327.29 507.748 327.185 507.886 326.965L508.308 326.297C508.619 325.805 509.377 325.998 509.414 326.578L509.466 327.366C509.483 327.626 509.665 327.845 509.917 327.909L510.682 328.104C511.246 328.247 511.297 329.027 510.757 329.242L510.023 329.535C509.781 329.631 509.629 329.872 509.646 330.131L509.698 330.92C509.735 331.5 509.009 331.789 508.637 331.342L508.132 330.735C507.966 330.535 507.69 330.465 507.449 330.561L506.715 330.853C506.175 331.069 505.675 330.467 505.985 329.976L506.407 329.308C506.546 329.088 506.527 328.804 506.361 328.604L505.856 327.996Z" fill="white"/>
<path d="M454.125 283.108C453.636 283.422 453.031 282.926 453.243 282.385L453.53 281.649C453.625 281.407 453.553 281.131 453.352 280.966L452.741 280.465C452.291 280.097 452.576 279.368 453.156 279.402L453.945 279.448C454.204 279.464 454.444 279.31 454.539 279.068L454.826 278.332C455.038 277.791 455.819 277.836 455.966 278.399L456.166 279.163C456.231 279.414 456.451 279.595 456.711 279.61L457.5 279.656C458.08 279.69 458.278 280.447 457.788 280.76L457.123 281.187C456.904 281.327 456.801 281.592 456.866 281.844L457.066 282.608C457.213 283.17 456.555 283.592 456.105 283.224L455.494 282.723C455.293 282.558 455.009 282.542 454.79 282.682L454.125 283.108Z" fill="white"/>
<path d="M454.125 283.108C453.636 283.422 453.031 282.926 453.243 282.385L453.53 281.649C453.625 281.407 453.553 281.131 453.352 280.966L452.741 280.465C452.291 280.097 452.576 279.368 453.156 279.402L453.945 279.448C454.204 279.464 454.444 279.31 454.539 279.068L454.826 278.332C455.038 277.791 455.819 277.836 455.966 278.399L456.166 279.163C456.231 279.414 456.451 279.595 456.711 279.61L457.5 279.656C458.08 279.69 458.278 280.447 457.788 280.76L457.123 281.187C456.904 281.327 456.801 281.592 456.866 281.844L457.066 282.608C457.213 283.17 456.555 283.592 456.105 283.224L455.494 282.723C455.293 282.558 455.009 282.542 454.79 282.682L454.125 283.108Z" fill="white"/>
<mask id="mask14" mask-type="alpha" maskUnits="userSpaceOnUse" x="422" y="241" width="158" height="118">
<g style="mix-blend-mode:screen">
<rect x="420.418" y="276.159" width="143.57" height="87.2466" rx="10" transform="rotate(-15 420.418 276.159)" fill="#A95DFD"/>
</g>
</mask>
<g mask="url(#mask14)">
<g style="mix-blend-mode:screen">
<path d="M425.918 371L518.918 237.5L536.418 241.5L441.418 381L425.918 371Z" fill="#E2CBFF" fill-opacity="0.1"/>
<path d="M480.418 356C504.251 317.834 552.318 240.7 553.918 237.5L557.418 240L486.918 356H480.418Z" fill="#E2CBFF" fill-opacity="0.1"/>
<path d="M420.418 322.5C434.418 303.334 463.018 264.6 465.418 263L456.918 258L413.418 316.5L420.418 322.5Z" fill="#E2CBFF" fill-opacity="0.1"/>
<path d="M572.918 280L522.918 356H533.418L580.918 285.5L572.918 280Z" fill="#E2CBFF" fill-opacity="0.1"/>
</g>
</g>
<path d="M500.73 256.561C499.13 251.761 504.064 247.895 506.73 246.561C507.397 246.061 509.73 245.061 513.73 245.061C515.08 245.061 516.43 245.316 517.73 245.768C519.897 245.008 524.63 244.146 526.23 246.775C527.83 249.404 525.9 250.395 524.735 250.562C525.299 251.203 525.969 251.795 526.23 252.561C527.918 257.5 528.418 260.5 527.23 262.061C525.797 263.947 524.164 262.488 523.399 261.335C524.01 262.407 523.884 263.254 523.73 263.561C521.23 268.061 518.23 264.561 517.73 264.061C518.23 265.561 517.73 266.562 516.23 267.561C514.369 268.802 513.189 267.617 512.598 266.478C512.923 267.722 512.779 269.562 509.73 269.562C504.73 269.562 502.73 262.561 500.73 256.561Z" fill="#FBBDAA"/>
<mask id="mask15" mask-type="alpha" maskUnits="userSpaceOnUse" x="500" y="245" width="29" height="25">
<path d="M500.73 256.561C499.13 251.761 504.064 247.895 506.73 246.561C507.397 246.061 509.73 245.061 513.73 245.061C515.08 245.061 516.43 245.316 517.73 245.768C519.897 245.008 524.63 244.146 526.23 246.775C527.83 249.404 525.9 250.395 524.735 250.562C525.299 251.203 525.801 251.875 526.23 252.561C528.73 256.561 529.23 259.561 527.23 262.061C525.753 263.908 524.162 262.486 523.402 261.339C524.009 262.409 523.884 263.254 523.73 263.561C521.23 268.061 518.23 264.561 517.73 264.061C518.23 265.561 517.73 266.562 516.23 267.561C514.369 268.802 513.189 267.617 512.598 266.478C512.923 267.722 512.779 269.562 509.73 269.562C504.73 269.562 502.73 262.561 500.73 256.561Z" fill="#FBBDAA"/>
</mask>
<g mask="url(#mask15)">
<path d="M509.418 256.5C509.818 260.5 511.584 264.833 512.418 266.5C513.418 268.5 514.618 272 511.418 270C508.218 268 508.751 260.167 509.418 256.5Z" fill="#EA8080"/>
<path d="M514.931 256.283C515.122 258.451 517.303 263.27 518.418 265.5C519.418 266.5 520.818 268.4 518.418 268C516.076 267.61 515.13 260.202 514.931 256.283C514.923 256.183 514.918 256.088 514.918 256C514.922 256.092 514.926 256.187 514.931 256.283Z" fill="#EA8080"/>
<path d="M524.918 263.5C521.918 260.5 521.418 254.5 521.418 254C520.918 255.333 519.918 257.5 521.418 261C522.376 263.236 523.585 263.667 524.918 263.5Z" fill="#EA8080"/>
<path d="M521.418 247.5C523.818 248.7 524.918 251 525.918 252C526.918 253 527.718 250.2 526.918 249C526.118 247.8 523.251 247.833 521.418 247.5Z" fill="#EA8080"/>
</g>
<path d="M558.418 310C553.209 320.419 518.085 337.667 499.918 344.5C540.918 356 564.918 336 573.918 329.5C582.918 323 593.418 306.5 600.418 290.5C607.418 274.5 611.418 250.5 597.418 245C583.418 239.5 565.418 296 558.418 310Z" fill="#0DC7F7"/>
<path d="M339.204 528.163C324.941 536.226 314.748 566.346 323.907 578H377.079C377.079 574.777 370.407 571.5 377.079 554.569C379.124 549.379 405.67 554.197 394.159 531.882C382.029 508.366 390.817 514.402 417.181 490.971C443.544 467.54 422.008 436.67 401.957 441.505C381.906 446.34 398.907 469 364.825 474.234C346.75 477.01 378.407 506 339.204 528.163Z" fill="#380271"/>
<path d="M341.418 577C342.418 574.5 343.407 535 363.407 526C383.407 517 368.407 498 385.407 486.5C399.007 477.3 408.407 466 411.407 461.5" stroke="white" stroke-width="2" stroke-linecap="round"/>
<defs>
<linearGradient id="paint0_linear" x1="572.418" y1="101" x2="572.418" y2="121" gradientUnits="userSpaceOnUse">
<stop stop-color="#FF8259"/>
<stop offset="1" stop-color="#FCC868"/>
</linearGradient>
<linearGradient id="paint1_linear" x1="170.5" y1="98" x2="231" y2="164" gradientUnits="userSpaceOnUse">
<stop stop-color="#8B6FF9"/>
<stop offset="1" stop-color="#3016F3"/>
</linearGradient>
<linearGradient id="paint2_linear" x1="149" y1="153.5" x2="196.918" y2="181" gradientUnits="userSpaceOnUse">
<stop stop-color="#FF7E58"/>
<stop offset="1" stop-color="#FCC868"/>
</linearGradient>
<linearGradient id="paint3_linear" x1="177" y1="111" x2="196.918" y2="136" gradientUnits="userSpaceOnUse">
<stop stop-color="#FF7E58"/>
<stop offset="1" stop-color="#FCC868"/>
</linearGradient>
<linearGradient id="paint4_linear" x1="267" y1="106" x2="302" y2="120" gradientUnits="userSpaceOnUse">
<stop stop-color="#FF8259"/>
<stop offset="1" stop-color="white" stop-opacity="0"/>
<stop offset="1" stop-color="#FCC969"/>
</linearGradient>
<linearGradient id="paint5_linear" x1="431.5" y1="149" x2="478.5" y2="212" gradientUnits="userSpaceOnUse">
<stop stop-color="#FF7A57"/>
<stop offset="1" stop-color="#FBCE69"/>
</linearGradient>
<linearGradient id="paint6_linear" x1="207.418" y1="398" x2="207.418" y2="442" gradientUnits="userSpaceOnUse">
<stop stop-color="#FF7C58"/>
<stop offset="1" stop-color="#FCC467"/>
</linearGradient>
<linearGradient id="paint7_linear" x1="224.5" y1="471.5" x2="207.418" y2="501" gradientUnits="userSpaceOnUse">
<stop stop-color="#3D22F5"/>
<stop offset="1" stop-color="#896CF9"/>
</linearGradient>
<linearGradient id="paint8_linear" x1="188" y1="280.515" x2="188" y2="351.581" gradientUnits="userSpaceOnUse">
<stop stop-color="#10BAF0"/>
<stop offset="1" stop-color="#2667DF"/>
</linearGradient>
<linearGradient id="paint9_linear" x1="134.418" y1="346" x2="134.418" y2="568" gradientUnits="userSpaceOnUse">
<stop stop-color="#0DC4F2"/>
<stop offset="1" stop-color="#2372E1"/>
</linearGradient>
<linearGradient id="paint10_linear" x1="176.5" y1="287.5" x2="93" y2="339.5" gradientUnits="userSpaceOnUse">
<stop stop-color="#FCCA69"/>
<stop offset="1" stop-color="#FF885B"/>
</linearGradient>
<linearGradient id="paint11_linear" x1="587.428" y1="244.615" x2="587.428" y2="352" gradientUnits="userSpaceOnUse">
<stop stop-color="#0BC8F2"/>
<stop offset="1" stop-color="#285FDD"/>
</linearGradient>
<linearGradient id="paint12_linear" x1="587.428" y1="244.615" x2="587.428" y2="352" gradientUnits="userSpaceOnUse">
<stop stop-color="#0BC8F2"/>
<stop offset="1" stop-color="#285FDD"/>
</linearGradient>
<linearGradient id="paint13_linear" x1="465.151" y1="298.851" x2="501.318" y2="355.129" gradientUnits="userSpaceOnUse">
<stop offset="0.0885417" stop-color="#876BF9"/>
<stop offset="0.859375" stop-color="#3D23F5"/>
</linearGradient>
</defs>
</svg>
