<svg id="svg" version="1.1" xmlns="http://www.w3.org/2000/svg" xmlns:xlink="http://www.w3.org/1999/xlink" width="400" height="400" viewBox="0, 0, 400,400"><g id="svgg"><path id="path0" d="M184.688 0.494 C 79.959 8.928,0.000 95.303,0.000 200.000 C 0.000 310.628,89.372 400.000,200.000 400.000 C 324.087 400.000,418.158 288.311,397.140 165.938 C 379.721 64.522,286.927 -7.740,184.688 0.494 M369.193 159.037 C 378.532 162.805,382.817 171.093,380.496 180.898 C 376.565 197.507,353.521 202.311,344.071 188.491 C 333.491 173.019,351.504 151.900,369.193 159.037 M54.688 158.891 C 79.098 161.296,92.629 175.791,92.624 199.531 C 92.620 215.802,86.770 226.711,73.906 234.436 C 65.842 239.279,59.084 240.313,35.476 240.313 L 19.762 240.313 19.523 224.141 C 19.392 215.246,19.375 198.547,19.485 187.031 C 19.596 175.516,19.686 164.447,19.687 162.435 L 19.688 158.776 22.109 158.685 C 26.910 158.504,52.397 158.665,54.688 158.891 M132.524 174.830 C 138.445 175.722,143.762 178.651,147.100 182.859 L 148.107 184.128 148.194 179.798 L 148.281 175.469 158.125 175.469 L 167.969 175.469 167.969 207.813 L 167.969 240.156 158.125 240.156 L 148.281 240.156 148.195 235.937 L 148.108 231.718 145.539 234.236 C 140.407 239.265,136.437 240.749,128.125 240.746 C 121.531 240.742,119.325 240.208,114.666 237.487 C 101.962 230.068,96.346 211.125,101.872 194.337 C 106.417 180.531,118.659 172.740,132.524 174.830 M228.893 175.641 C 237.654 177.643,244.702 186.297,245.932 196.563 C 246.335 199.927,246.653 239.349,246.281 239.949 C 246.109 240.227,243.602 240.301,236.385 240.239 L 226.719 240.156 226.533 220.938 C 226.425 209.777,226.214 201.169,226.031 200.408 C 224.341 193.388,218.066 190.087,210.037 191.991 C 207.787 192.525,205.173 194.541,203.908 196.719 C 201.984 200.031,202.046 199.312,201.875 220.625 L 201.719 240.156 191.956 240.239 L 182.194 240.321 182.113 211.645 C 182.068 195.873,182.102 181.281,182.188 179.219 L 182.344 175.469 192.109 175.386 L 201.875 175.304 201.875 179.410 L 201.875 183.517 204.182 181.326 C 210.425 175.395,219.092 173.402,228.893 175.641 M278.760 191.641 C 278.771 211.513,278.964 214.872,280.249 217.618 C 284.567 226.846,299.117 226.247,302.704 216.693 C 303.236 215.276,303.293 213.615,303.438 195.313 L 303.594 175.469 313.516 175.386 L 323.438 175.304 323.438 207.813 L 323.438 240.321 313.672 240.239 L 303.906 240.156 303.819 235.972 L 303.731 231.788 301.475 233.965 C 292.544 242.585,277.003 243.192,267.956 235.274 C 264.143 231.938,261.635 227.768,260.085 222.188 L 259.260 219.219 259.146 197.266 L 259.031 175.313 268.891 175.313 L 278.750 175.313 278.760 191.641 M39.688 199.219 L 39.688 222.813 46.386 222.813 C 65.109 222.813,72.977 215.285,72.421 197.902 C 71.911 181.935,63.809 175.694,43.516 175.636 L 39.688 175.625 39.688 199.219 M130.546 192.194 C 117.094 195.592,116.318 218.274,129.498 222.800 C 140.749 226.663,150.619 216.253,147.821 203.472 C 146.049 195.376,138.210 190.259,130.546 192.194 " stroke="none" fill="#8763fb" fill-rule="evenodd"></path><path id="path1" d="M359.219 158.002 C 344.664 160.091,336.376 176.540,344.071 188.064 C 354.854 204.210,380.964 195.504,380.909 175.781 C 380.878 164.799,370.594 156.369,359.219 158.002 M19.688 199.397 L 19.688 240.044 38.047 239.919 C 60.745 239.764,64.647 239.188,72.813 234.786 C 97.783 221.326,99.979 183.031,76.729 166.481 C 67.626 160.002,60.949 158.759,35.234 158.753 L 19.688 158.750 19.688 199.397 M366.222 159.232 C 379.759 162.422,383.873 179.106,373.617 189.219 C 365.453 197.268,351.092 196.429,345.194 187.557 C 336.012 173.745,349.681 155.333,366.222 159.232 M121.719 175.480 C 112.507 177.819,105.438 184.472,102.183 193.869 C 98.835 203.531,99.522 217.019,103.788 225.388 C 112.201 241.895,132.803 246.122,145.532 233.953 L 148.438 231.176 148.438 235.588 L 148.438 240.000 158.125 240.000 L 167.813 240.000 167.813 207.813 L 167.813 175.625 158.125 175.625 L 148.438 175.625 148.427 180.078 L 148.417 184.531 146.630 182.608 C 140.245 175.735,131.062 173.108,121.719 175.480 M219.375 174.898 C 213.418 175.408,207.636 178.039,203.761 182.003 C 201.469 184.347,201.469 184.346,201.602 179.766 L 201.719 175.781 191.953 175.699 L 182.188 175.616 182.188 207.813 L 182.188 240.009 191.953 239.926 L 201.719 239.844 201.875 220.156 L 202.031 200.469 202.761 198.662 C 206.646 189.036,220.604 188.376,225.159 197.603 C 226.623 200.570,226.856 204.268,226.867 224.766 L 226.875 240.000 236.563 240.000 L 246.250 240.000 246.250 220.221 C 246.250 195.786,245.993 193.201,242.962 187.183 C 238.919 179.155,229.142 174.063,219.375 174.898 M55.156 176.150 C 66.733 178.384,72.821 186.502,72.808 199.688 C 72.791 215.790,64.319 223.084,45.594 223.115 L 39.782 223.125 39.599 219.904 C 39.499 218.132,39.443 207.479,39.474 196.232 L 39.531 175.781 40.781 175.580 C 42.836 175.250,52.469 175.632,55.156 176.150 M259.073 194.453 C 259.088 222.026,259.721 225.722,265.618 232.728 C 273.995 242.680,291.312 243.314,301.089 234.027 C 304.114 231.153,304.180 231.175,303.908 234.970 C 303.787 236.671,303.783 238.500,303.900 239.032 L 304.112 240.000 313.775 240.000 L 323.438 240.000 323.438 207.813 L 323.438 175.625 313.605 175.625 L 303.772 175.625 303.679 195.234 C 303.575 216.936,303.656 216.044,301.487 219.375 C 296.808 226.560,284.122 225.778,280.242 218.066 C 278.890 215.379,278.763 213.307,278.756 193.828 L 278.750 175.625 268.906 175.625 L 259.063 175.625 259.073 194.453 M136.719 191.873 C 146.308 193.441,151.431 205.684,146.722 215.781 C 140.898 228.270,122.869 225.717,120.341 212.044 C 118.027 199.526,125.704 190.071,136.719 191.873 " stroke="none" fill="#fbfbfb" fill-rule="evenodd"></path><path id="path2" d="M358.438 159.367 C 345.765 162.099,338.853 174.556,344.082 185.237 C 350.459 198.265,370.488 197.551,377.152 184.059 C 383.805 170.590,372.931 156.242,358.438 159.367 " stroke="none" fill="#10b1bc" fill-rule="evenodd"></path><path id="path3" d="M354.688 160.156 C 353.667 160.740,354.024 160.746,355.355 160.168 C 355.933 159.917,356.195 159.711,355.938 159.711 C 355.680 159.710,355.117 159.911,354.688 160.156 M350.793 162.261 C 348.659 163.741,346.723 165.604,345.672 167.188 C 345.016 168.177,345.045 168.162,345.983 167.031 C 347.611 165.069,349.378 163.500,351.328 162.283 C 352.316 161.666,353.125 161.111,353.125 161.049 C 353.125 160.753,352.501 161.077,350.793 162.261 M374.219 163.750 C 375.065 164.609,375.828 165.313,375.914 165.313 C 376.000 165.313,375.378 164.609,374.531 163.750 C 373.685 162.891,372.922 162.188,372.836 162.188 C 372.750 162.188,373.372 162.891,374.219 163.750 M342.260 175.938 C 342.260 176.539,342.324 176.785,342.403 176.484 C 342.482 176.184,342.482 175.691,342.403 175.391 C 342.324 175.090,342.260 175.336,342.260 175.938 M373.579 189.141 L 372.344 190.469 373.672 189.233 C 374.402 188.554,375.000 187.956,375.000 187.905 C 375.000 187.669,374.728 187.905,373.579 189.141 M351.563 192.993 C 351.563 193.204,353.186 193.793,353.341 193.639 C 353.411 193.568,353.040 193.360,352.516 193.177 C 351.992 192.995,351.563 192.911,351.563 192.993 M359.613 194.909 C 360.002 194.983,360.564 194.980,360.863 194.902 C 361.162 194.824,360.844 194.763,360.156 194.766 C 359.469 194.770,359.224 194.834,359.613 194.909 " stroke="none" fill="#85c5da" fill-rule="evenodd"></path><path id="path4" d="M41.328 158.668 C 42.316 158.730,43.934 158.730,44.922 158.668 C 45.910 158.606,45.102 158.556,43.125 158.556 C 41.148 158.556,40.340 158.606,41.328 158.668 M52.734 158.971 C 53.121 159.045,53.754 159.045,54.141 158.971 C 54.527 158.896,54.211 158.835,53.438 158.835 C 52.664 158.835,52.348 158.896,52.734 158.971 M347.570 163.672 C 345.133 166.063,345.130 166.068,347.317 164.082 C 348.535 162.975,349.737 161.885,349.989 161.660 C 350.241 161.434,350.354 161.250,350.242 161.250 C 350.129 161.250,348.927 162.340,347.570 163.672 M68.750 162.188 C 69.352 162.517,69.984 162.786,70.156 162.786 C 70.328 162.786,69.977 162.517,69.375 162.188 C 68.773 161.858,68.141 161.589,67.969 161.589 C 67.797 161.589,68.148 161.858,68.750 162.188 M71.276 163.242 C 71.598 163.529,73.438 164.375,73.438 164.235 C 73.438 164.055,71.705 163.125,71.370 163.125 C 71.247 163.125,71.204 163.177,71.276 163.242 M76.250 166.024 C 76.250 166.084,76.707 166.467,77.266 166.876 C 77.894 167.336,78.112 167.412,77.838 167.074 C 77.422 166.561,76.250 165.787,76.250 166.024 M78.906 168.012 C 80.926 170.025,84.049 172.774,82.813 171.452 C 82.039 170.625,80.703 169.373,79.844 168.669 C 78.984 167.966,78.563 167.670,78.906 168.012 M381.034 175.781 C 381.036 176.813,381.094 177.197,381.164 176.635 C 381.234 176.073,381.232 175.230,381.161 174.760 C 381.089 174.290,381.033 174.750,381.034 175.781 M127.740 174.601 C 128.302 174.671,129.145 174.670,129.615 174.598 C 130.085 174.527,129.625 174.470,128.594 174.472 C 127.563 174.474,127.178 174.532,127.740 174.601 M43.055 175.542 C 43.790 175.608,44.915 175.607,45.555 175.540 C 46.195 175.473,45.594 175.418,44.219 175.420 C 42.844 175.421,42.320 175.476,43.055 175.542 M135.938 175.781 C 136.539 176.013,137.242 176.202,137.500 176.202 C 137.758 176.202,137.477 176.013,136.875 175.781 C 136.273 175.550,135.570 175.360,135.313 175.360 C 135.055 175.360,135.336 175.550,135.938 175.781 M148.264 175.714 C 148.177 175.940,148.150 178.017,148.204 180.328 L 148.301 184.531 148.369 180.078 L 148.438 175.625 158.125 175.625 L 167.813 175.625 167.813 207.813 L 167.813 240.000 158.134 240.000 L 148.455 240.000 148.354 235.547 L 148.254 231.094 148.267 235.625 L 148.281 240.156 158.125 240.156 L 167.969 240.156 167.969 207.813 L 167.969 175.469 158.195 175.386 C 150.349 175.320,148.390 175.385,148.264 175.714 M185.781 175.534 C 194.437 175.755,201.876 175.761,201.875 175.547 C 201.875 175.418,197.480 175.343,192.109 175.379 C 186.738 175.416,183.891 175.486,185.781 175.534 M264.004 175.546 C 266.808 175.598,271.308 175.598,274.004 175.546 C 276.700 175.494,274.406 175.452,268.906 175.452 C 263.406 175.452,261.200 175.495,264.004 175.546 M303.581 175.703 C 303.499 175.918,303.469 184.602,303.515 195.000 L 303.599 213.906 303.674 194.770 L 303.750 175.634 313.672 175.547 L 323.594 175.460 313.662 175.386 C 305.950 175.329,303.697 175.400,303.581 175.703 M341.010 176.250 C 341.010 176.852,341.074 177.098,341.153 176.797 C 341.232 176.496,341.232 176.004,341.153 175.703 C 341.074 175.402,341.010 175.648,341.010 176.250 M49.930 175.854 C 50.665 175.920,51.790 175.919,52.430 175.852 C 53.070 175.785,52.469 175.731,51.094 175.732 C 49.719 175.733,49.195 175.788,49.930 175.854 M39.522 194.844 C 39.522 205.328,39.561 209.572,39.609 204.274 C 39.657 198.977,39.657 190.399,39.609 185.212 C 39.561 180.025,39.522 184.359,39.522 194.844 M210.313 177.031 C 209.883 177.277,209.672 177.478,209.844 177.478 C 210.016 177.478,210.508 177.277,210.938 177.031 C 211.367 176.786,211.578 176.585,211.406 176.585 C 211.234 176.585,210.742 176.786,210.313 177.031 M231.589 176.681 C 231.907 176.972,235.000 178.432,235.000 178.292 C 235.000 178.116,232.016 176.563,231.677 176.563 C 231.557 176.563,231.517 176.616,231.589 176.681 M60.026 177.617 C 60.348 177.904,62.188 178.750,62.188 178.610 C 62.188 178.430,60.455 177.500,60.120 177.500 C 59.997 177.500,59.954 177.552,60.026 177.617 M201.627 180.703 C 201.550 184.328,201.510 184.312,204.072 181.641 L 206.094 179.531 203.997 181.541 L 201.900 183.551 201.796 180.604 L 201.692 177.656 201.627 180.703 M142.188 178.520 C 142.188 178.589,142.785 179.120,143.516 179.701 C 144.246 180.281,144.645 180.509,144.403 180.207 C 143.946 179.639,142.188 178.299,142.188 178.520 M235.313 178.520 C 235.313 178.589,235.910 179.120,236.641 179.701 C 237.371 180.281,237.770 180.509,237.528 180.207 C 237.071 179.639,235.313 178.299,235.313 178.520 M110.217 181.263 C 109.084 182.302,107.712 183.743,107.168 184.466 C 106.380 185.514,106.477 185.449,107.645 184.146 C 108.451 183.246,109.908 181.807,110.883 180.947 C 111.858 180.087,112.571 179.382,112.467 179.379 C 112.363 179.377,111.351 180.225,110.217 181.263 M341.010 180.625 C 341.010 181.227,341.074 181.473,341.153 181.172 C 341.232 180.871,341.232 180.379,341.153 180.078 C 341.074 179.777,341.010 180.023,341.010 180.625 M19.523 202.344 C 19.523 214.547,19.562 219.585,19.609 213.539 C 19.657 207.493,19.657 197.508,19.609 191.351 C 19.562 185.194,19.523 190.141,19.523 202.344 M66.406 181.875 C 67.078 182.563,67.697 183.125,67.783 183.125 C 67.869 183.125,67.390 182.563,66.719 181.875 C 66.047 181.188,65.428 180.625,65.342 180.625 C 65.256 180.625,65.735 181.188,66.406 181.875 M344.363 188.906 C 346.285 191.611,351.182 195.313,352.841 195.313 C 353.037 195.313,352.066 194.746,350.682 194.054 C 348.752 193.088,347.673 192.270,346.043 190.538 C 344.875 189.297,344.119 188.563,344.363 188.906 M214.375 191.240 C 215.149 191.498,217.412 191.668,217.161 191.449 C 217.090 191.386,216.258 191.255,215.313 191.157 C 214.203 191.042,213.871 191.071,214.375 191.240 M211.801 191.471 C 212.189 191.546,212.752 191.543,213.051 191.465 C 213.349 191.386,213.031 191.325,212.344 191.329 C 211.656 191.332,211.412 191.396,211.801 191.471 M133.520 191.787 C 133.995 191.859,134.698 191.857,135.082 191.782 C 135.467 191.708,135.078 191.650,134.219 191.652 C 133.359 191.654,133.045 191.715,133.520 191.787 M140.109 193.234 C 141.286 193.825,142.833 194.851,143.547 195.514 L 144.844 196.719 143.640 195.423 C 142.443 194.134,140.242 192.758,138.750 192.365 C 138.320 192.252,138.932 192.643,140.109 193.234 M220.946 193.015 C 221.371 193.299,222.219 193.967,222.830 194.500 C 223.442 195.033,223.256 194.801,222.418 193.984 C 221.580 193.168,220.732 192.500,220.534 192.500 C 220.336 192.500,220.521 192.732,220.946 193.015 M205.296 194.609 L 204.219 195.781 205.391 194.704 C 206.481 193.702,206.706 193.438,206.468 193.438 C 206.415 193.438,205.888 193.965,205.296 194.609 M92.573 195.625 C 92.573 196.227,92.637 196.473,92.715 196.172 C 92.794 195.871,92.794 195.379,92.715 195.078 C 92.637 194.777,92.573 195.023,92.573 195.625 M124.199 195.703 L 123.281 196.719 124.297 195.801 C 125.244 194.945,125.456 194.688,125.215 194.688 C 125.161 194.688,124.704 195.145,124.199 195.703 M72.623 199.531 C 72.624 201.938,72.673 202.881,72.732 201.627 C 72.792 200.373,72.791 198.405,72.731 197.252 C 72.671 196.099,72.623 197.125,72.623 199.531 M92.579 203.281 C 92.582 203.969,92.646 204.213,92.721 203.824 C 92.796 203.436,92.793 202.873,92.715 202.574 C 92.636 202.276,92.575 202.594,92.579 203.281 M99.804 207.344 C 99.805 209.234,99.857 209.968,99.919 208.973 C 99.981 207.978,99.980 206.432,99.917 205.535 C 99.855 204.639,99.804 205.453,99.804 207.344 M148.241 207.813 C 148.241 209.617,148.292 210.355,148.355 209.453 C 148.419 208.551,148.419 207.074,148.355 206.172 C 148.292 205.270,148.241 206.008,148.241 207.813 M226.714 223.906 L 226.719 240.156 236.484 240.163 L 246.250 240.170 236.565 240.080 L 226.881 239.991 226.795 223.824 L 226.710 207.656 226.714 223.906 M278.847 211.094 C 278.849 212.125,278.907 212.509,278.976 211.948 C 279.046 211.386,279.045 210.542,278.973 210.073 C 278.902 209.603,278.845 210.063,278.847 211.094 M246.378 219.219 C 246.378 222.141,246.424 223.378,246.482 221.968 C 246.540 220.559,246.540 218.168,246.483 216.656 C 246.425 215.144,246.378 216.297,246.378 219.219 M259.152 215.781 C 259.154 216.641,259.215 216.955,259.287 216.480 C 259.359 216.005,259.357 215.302,259.282 214.918 C 259.208 214.533,259.150 214.922,259.152 215.781 M66.699 216.641 L 65.781 217.656 66.797 216.738 C 67.744 215.883,67.956 215.625,67.715 215.625 C 67.661 215.625,67.204 216.082,66.699 216.641 M39.454 217.344 C 39.457 218.031,39.521 218.276,39.596 217.887 C 39.671 217.498,39.668 216.936,39.590 216.637 C 39.511 216.338,39.450 216.656,39.454 217.344 M63.045 219.348 C 61.760 220.171,61.582 220.461,62.715 219.886 C 63.262 219.607,63.798 219.238,63.905 219.065 C 64.155 218.659,64.081 218.684,63.045 219.348 M140.951 221.751 C 140.014 222.335,139.388 222.813,139.562 222.813 C 139.938 222.813,142.813 221.023,142.813 220.788 C 142.813 220.579,142.930 220.518,140.951 221.751 M126.875 221.837 C 128.900 223.518,135.853 224.580,137.671 223.484 C 138.197 223.167,138.152 223.148,137.344 223.342 C 134.497 224.026,129.886 223.329,127.188 221.806 L 126.094 221.188 126.875 221.837 M42.734 223.046 C 44.496 223.101,47.379 223.101,49.141 223.046 C 50.902 222.990,49.461 222.944,45.938 222.944 C 42.414 222.944,40.973 222.990,42.734 223.046 M286.778 223.590 C 287.327 223.843,288.381 224.122,289.122 224.212 L 290.469 224.374 288.906 223.960 C 288.047 223.732,286.992 223.453,286.563 223.339 C 286.022 223.195,286.089 223.273,286.778 223.590 M81.310 228.361 C 77.249 232.480,77.506 232.576,81.673 228.496 C 83.671 226.540,85.705 224.224,85.256 224.418 C 85.201 224.441,83.426 226.216,81.310 228.361 M246.371 228.594 C 246.372 230.828,246.422 231.701,246.482 230.534 C 246.542 229.367,246.542 227.538,246.481 226.471 C 246.420 225.404,246.371 226.359,246.371 228.594 M104.647 227.344 C 104.816 227.688,105.183 228.250,105.463 228.594 L 105.972 229.219 105.665 228.594 C 105.496 228.250,105.129 227.688,104.849 227.344 L 104.341 226.719 104.647 227.344 M106.875 230.723 C 106.875 230.777,107.332 231.234,107.891 231.738 L 108.906 232.656 107.988 231.641 C 107.133 230.694,106.875 230.481,106.875 230.723 M145.469 234.004 C 144.266 235.169,142.859 236.440,142.344 236.828 C 141.643 237.356,141.596 237.442,142.158 237.168 C 142.869 236.821,148.143 231.897,147.813 231.889 C 147.727 231.887,146.672 232.839,145.469 234.004 M300.781 234.297 C 299.406 235.615,298.703 236.394,299.219 236.027 C 300.144 235.369,303.709 231.863,303.427 231.888 C 303.347 231.895,302.156 232.979,300.781 234.297 M303.844 233.438 C 303.844 234.383,303.902 234.770,303.974 234.297 C 304.045 233.824,304.045 233.051,303.974 232.578 C 303.902 232.105,303.844 232.492,303.844 233.438 M110.625 234.531 C 111.208 235.133,111.755 235.625,111.841 235.625 C 111.927 235.625,111.521 235.133,110.938 234.531 C 110.354 233.930,109.807 233.438,109.721 233.438 C 109.635 233.438,110.042 233.930,110.625 234.531 M71.875 235.313 C 71.273 235.642,70.894 235.917,71.031 235.924 C 71.362 235.942,73.125 235.025,73.125 234.836 C 73.125 234.631,73.107 234.638,71.875 235.313 M139.688 238.281 C 138.914 238.695,138.392 239.041,138.528 239.048 C 138.860 239.067,141.250 237.839,141.250 237.650 C 141.250 237.443,141.263 237.438,139.688 238.281 M115.625 237.966 C 115.625 238.180,117.538 239.128,117.681 238.985 C 117.749 238.917,117.314 238.628,116.715 238.342 C 116.115 238.056,115.625 237.887,115.625 237.966 M303.850 239.531 C 303.913 240.141,304.147 240.156,313.676 240.163 L 323.438 240.170 313.772 240.080 C 304.912 239.999,304.093 239.946,303.946 239.449 C 303.824 239.034,303.801 239.054,303.850 239.531 M191.875 240.000 L 182.031 240.170 191.778 240.241 C 198.018 240.287,201.595 240.200,201.719 240.000 C 201.825 239.828,201.868 239.720,201.815 239.759 C 201.762 239.798,197.289 239.907,191.875 240.000 M27.913 240.234 C 32.522 240.283,39.975 240.283,44.475 240.234 C 48.975 240.185,45.203 240.145,36.094 240.146 C 26.984 240.146,23.303 240.185,27.913 240.234 M132.891 240.528 C 133.191 240.607,133.684 240.607,133.984 240.528 C 134.285 240.449,134.039 240.385,133.438 240.385 C 132.836 240.385,132.590 240.449,132.891 240.528 M279.141 240.536 C 279.613 240.608,280.387 240.608,280.859 240.536 C 281.332 240.465,280.945 240.406,280.000 240.406 C 279.055 240.406,278.668 240.465,279.141 240.536 M286.641 240.536 C 287.113 240.608,287.887 240.608,288.359 240.536 C 288.832 240.465,288.445 240.406,287.500 240.406 C 286.555 240.406,286.168 240.465,286.641 240.536 M124.453 240.840 C 124.754 240.919,125.246 240.919,125.547 240.840 C 125.848 240.762,125.602 240.698,125.000 240.698 C 124.398 240.698,124.152 240.762,124.453 240.840 M130.391 240.840 C 130.691 240.919,131.184 240.919,131.484 240.840 C 131.785 240.762,131.539 240.698,130.938 240.698 C 130.336 240.698,130.090 240.762,130.391 240.840 " stroke="none" fill="#ac97f6" fill-rule="evenodd"></path></g></svg>